<svg xmlns="http://www.w3.org/2000/svg" viewBox="0 0 500 500"><g id="freepik--background-complete--inject-441"><rect x="416.78" y="398.49" width="33.12" height="0.25" style="fill:#ebebeb"></rect><rect x="322.53" y="401.21" width="8.69" height="0.25" style="fill:#ebebeb"></rect><rect x="396.59" y="389.21" width="19.19" height="0.25" style="fill:#ebebeb"></rect><rect x="52.46" y="390.89" width="43.19" height="0.25" style="fill:#ebebeb"></rect><rect x="104.56" y="390.89" width="6.33" height="0.25" style="fill:#ebebeb"></rect><rect x="131.47" y="395.11" width="93.68" height="0.25" style="fill:#ebebeb"></rect><path d="M237,337.8H43.92a5.71,5.71,0,0,1-5.71-5.71V60.66A5.71,5.71,0,0,1,43.92,55H237a5.71,5.71,0,0,1,5.71,5.71V332.09A5.71,5.71,0,0,1,237,337.8ZM43.92,55.2a5.47,5.47,0,0,0-5.46,5.46V332.09a5.47,5.47,0,0,0,5.46,5.46H237a5.47,5.47,0,0,0,5.46-5.46V60.66A5.47,5.47,0,0,0,237,55.2Z" style="fill:#ebebeb"></path><path d="M453.31,337.8H260.21a5.72,5.72,0,0,1-5.71-5.71V60.66A5.72,5.72,0,0,1,260.21,55h193.1A5.71,5.71,0,0,1,459,60.66V332.09A5.71,5.71,0,0,1,453.31,337.8ZM260.21,55.2a5.47,5.47,0,0,0-5.46,5.46V332.09a5.47,5.47,0,0,0,5.46,5.46h193.1a5.47,5.47,0,0,0,5.46-5.46V60.66a5.47,5.47,0,0,0-5.46-5.46Z" style="fill:#ebebeb"></path><rect y="382.4" width="500" height="0.25" style="fill:#ebebeb"></rect><path d="M369.1,381.66c4.64-1.58,12.3-7,11.35-16s-8.14,4.39-9.91,1,10.14-7.2,5.22-14.59-8.66,6.3-11,3.31,9.93-10.44,1.24-18.1-5.62,6.32-9.71,5.23,2.15-7.32-3.9-12.37-11.54-.84-8,4.64-9.34-.57-9.8,4.57,13.09,7.45,13.91,9.79-12.37-2.56-12.26.72,2.94,11.09,7,11.55,11.07-2.12,12-.25-13.91,1.48-13,3.81,4.6,8.82,7.31,8.54,10-3.48,10.39-1.73-12.94,2.47-11.14,4.4S354.43,386.64,369.1,381.66Z" style="fill:#e0e0e0"></path><path d="M400.67,376.79c-3.49-3.44-8-11.67-3.27-19.35s5.43,7.5,8.51,5.19-6-10.89,1.63-15.41,5.07,9.44,8.51,7.79-4.41-13.72,6.75-16.84,2.32,8.13,6.47,8.93,1.25-7.53,8.9-9.45,10.75,4.26,5.2,7.67,8.66,3.55,6.84,8.38-15,1-16.78,2.77,12.26,3.08,10.73,6-7.46,8.72-11.35,7.35-9-6.72-10.71-5.45,11.89,7.38,10,9.09-8,5.94-10.3,4.51-7.52-7.5-8.6-6.07,10.57,7.85,8.12,8.8S411.72,387.65,400.67,376.79Z" style="fill:#e0e0e0"></path><path d="M380.39,381.29c-5.77-2-15.29-8.72-14.11-19.89s10.12,5.46,12.32,1.21-12.61-8.94-6.5-18.13,10.77,7.83,13.73,4.12-12.34-13-1.55-22.49,7,7.85,12.08,6.5-2.67-9.11,4.85-15.38,14.34-1.05,10,5.77,11.61-.71,12.19,5.67-16.27,9.27-17.29,12.17,15.38-3.17,15.23.89-3.64,13.79-8.72,14.36-13.76-2.63-14.94-.31,17.29,1.84,16.15,4.74-5.71,11-9.08,10.61-12.47-4.33-12.91-2.15,16.08,3.08,13.85,5.47S398.62,387.48,380.39,381.29Z" style="fill:#f0f0f0"></path><path d="M103.16,382.17c-3.1-1.05-8.21-4.68-7.58-10.69s5.44,2.94,6.62.66-6.77-4.8-3.49-9.74,5.79,4.2,7.38,2.21-6.63-7-.83-12.09,3.75,4.22,6.48,3.5-1.43-4.89,2.61-8.27,7.7-.56,5.36,3.1,6.24-.38,6.54,3-8.74,5-9.29,6.54,8.27-1.71,8.19.48-2,7.41-4.69,7.71-7.39-1.41-8-.16,9.29,1,8.68,2.55-3.07,5.88-4.89,5.7-6.69-2.33-6.93-1.16,8.64,1.65,7.44,2.94S113,385.5,103.16,382.17Z" style="fill:#e0e0e0"></path><path d="M82.08,378.92c2.33-2.3,5.36-7.79,2.18-12.92s-3.62,5-5.67,3.46,4-7.27-1.1-10.29-3.38,6.31-5.68,5.2,2.94-9.16-4.5-11.24-1.55,5.43-4.33,6-.83-5-5.94-6.3-7.18,2.84-3.47,5.12-5.79,2.37-4.57,5.59,10,.68,11.2,1.85-8.18,2-7.16,4,5,5.82,7.58,4.91,6-4.49,7.15-3.64-7.94,4.93-6.71,6.07,5.33,4,6.88,3,5-5,5.74-4.06-7.06,5.24-5.42,5.88S74.7,386.17,82.08,378.92Z" style="fill:#e6e6e6"></path><path d="M95.62,381.92c3.86-1.31,10.21-5.82,9.43-13.28s-6.76,3.65-8.23.81,8.42-6,4.34-12.11S94,362.57,92,360.09s8.24-8.66,1-15-4.67,5.25-8.06,4.34,1.78-6.07-3.24-10.27-9.57-.69-6.66,3.86-7.75-.48-8.13,3.79,10.86,6.19,11.54,8.12-10.27-2.12-10.17.6,2.43,9.2,5.82,9.59,9.19-1.76,10-.21-11.55,1.23-10.79,3.17,3.81,7.31,6.07,7.08,8.32-2.89,8.62-1.44-10.74,2.06-9.25,3.66S83.45,386.06,95.62,381.92Z" style="fill:#f0f0f0"></path><polygon points="352.95 285.81 351.5 298.72 354.94 365.42 355.52 372.36 361.56 376.22 370.87 383.2 362.62 383.2 358.19 381.1 356.13 379.52 356.44 383.2 323.06 383.2 324.35 375.73 319.07 377.76 314.81 383.2 310.02 383.2 313.99 373.9 326.3 364.51 327.12 359.77 331.7 302.34 314.36 283.28 305.32 252.57 310.88 252.57 321.51 280.11 333.75 291.15 346.57 244.45 357.59 244.46 354.06 275.89 367.73 270.23 386.13 252.04 391.79 252.57 368.87 276.26 352.95 285.81" style="fill:#e0e0e0"></polygon><path d="M403.64,181.3c-19.81-11.44-42.3-11.44-56.55-1.5-6.23-12.86-22.72-24.07-39.35-20.33-17.95,4-24.51,11.19-25.74,19.75-.38.09-.76.15-1.14.26-12.25,3.47-19.65,15.43-17.08,27.12-9.69,3.79-16,9.9-16,19.16,0,18.46,25,42.45,52.06,42.45,14.46,0,27.46-4.28,36.43-11.08a48.66,48.66,0,0,0,6.51.47,67.64,67.64,0,0,0,22.76-3.83c24.63,12.72,52.53,8.28,63.41-10.57C440.27,223.61,428.93,195.9,403.64,181.3Z" style="fill:#ebebeb"></path><path d="M356,242.46c1.21-7.65-4.85-15-13.54-16.34a18.35,18.35,0,0,0-2.2-.2c-2.61-7.78-10-14.09-19.63-15.61-13.11-2.08-25.22,5.58-27.06,17.11,0,.23,0,.46-.07.69a21.13,21.13,0,1,0,9.73,40.7A28.1,28.1,0,0,0,312,271a26.45,26.45,0,0,0,19.26-5.89,7,7,0,0,0,4.21,2.5c5.06.81,10.14-4.74,11.36-12.38a20,20,0,0,0,.22-2.27A13.68,13.68,0,0,0,356,242.46Z" style="fill:#f5f5f5"></path><path d="M361.12,248.36c0-4.41,4.06-8,9.07-8a10.21,10.21,0,0,1,1.25.09,13.9,13.9,0,0,1,12.43-7c7.56,0,13.69,5.39,13.69,12,0,.13,0,.26,0,.39a12,12,0,0,1-3,23.69,11.92,11.92,0,0,1-6.1-1.67,15.91,15.91,0,0,1-5.1.42,15,15,0,0,1-10.3-5,4,4,0,0,1-2.6,1c-2.91,0-5.28-3.57-5.28-8a10.93,10.93,0,0,1,.08-1.3A7.78,7.78,0,0,1,361.12,248.36Z" style="fill:#f5f5f5"></path><path d="M198.07,383.2H166.89A107.39,107.39,0,0,0,175.24,347c3.09-61,5.15-190.35,5.15-190.35h4.18S186.63,286,189.72,347A107.39,107.39,0,0,0,198.07,383.2Z" style="fill:#e0e0e0"></path><path d="M110.21,316.37c-3,8.86,3.59,16.55,8,16.55s8-7.41,8-16.55c0,9.14,3.59,16.55,8,16.55s8-7.41,8-16.55c0,9.14,3.59,16.55,8,16.55s8-7.41,8-16.55c0,9.14,3.59,16.55,8,16.55s8-7.41,8-16.55c0,9.14,3.6,16.55,8,16.55s8-7.41,8-16.55c0,9.14,3.6,16.55,8,16.55s8-7.41,8-16.55c0,9.14,3.6,16.55,8,16.55s8-7.41,8-16.55c0,9.14,3.6,16.55,8,16.55s8-7.41,8-16.55c0,9.14,3.6,16.55,8,16.55s11-7.69,8-16.55C245.44,288.47,182.48,215,182.48,215S119.52,288.47,110.21,316.37Z" style="fill:#e6e6e6"></path><path d="M126.27,271.73c-2.93,8.87,3.59,16.55,8,16.55s8-7.41,8-16.55c0,9.14,3.59,16.55,8,16.55s8-7.41,8-16.55c0,9.14,3.59,16.55,8,16.55s8-7.41,8-16.55c0,9.14,3.6,16.55,8,16.55s8-7.41,8-16.55c0,9.14,3.6,16.55,8,16.55s8-7.41,8-16.55c0,9.14,3.6,16.55,8,16.55s8-7.41,8-16.55c0,9.14,3.6,16.55,8,16.55s11-7.68,8-16.55c-7.24-21.94-56.21-79.92-56.21-79.92S133.51,249.79,126.27,271.73Z" style="fill:#ebebeb"></path><path d="M142.33,226.33c-3,8.87,3.59,16.55,8,16.55s8-7.41,8-16.55c0,9.14,3.59,16.55,8,16.55s8-7.41,8-16.55c0,9.14,3.6,16.55,8,16.55s8-7.41,8-16.55c0,9.14,3.6,16.55,8,16.55s8-7.41,8-16.55c0,9.14,3.6,16.55,8,16.55s11-7.68,8-16.55c-5.17-15.54-40.15-56.52-40.15-56.52S147.5,210.79,142.33,226.33Z" style="fill:#f0f0f0"></path><path d="M206.57,181.29c2.82,8.9-3.59,16.56-8,16.56s-8-7.41-8-16.56c0,9.15-3.59,16.56-8,16.56s-8-7.41-8-16.56c0,9.15-3.6,16.56-8,16.56s-10.85-7.66-8-16.56c3.1-9.76,24.09-35.83,24.09-35.83S203.48,171.53,206.57,181.29Z" style="fill:#f5f5f5"></path><path d="M423.28,117.42c-4,1.63-17.19-.33-17.19-.33l-1.42.61a28.24,28.24,0,0,1-24.37-1.1h0s-10.85.43-14.37-.28c-5.36-1.08-13.35-5.32-11.35-18.7s22.08-1.82,22.08-1.82S370.87,77,390.43,82.66s21.11,24.28,21.11,24.28S442,109.74,423.28,117.42Z" style="fill:#f5f5f5"></path><path d="M203.88,112.66c-2.83,1.16-12.26-.23-12.26-.23l-1,.43a20.16,20.16,0,0,1-17.4-.79h0s-7.75.31-10.26-.2c-3.83-.77-9.54-3.8-8.11-13.35s15.77-1.3,15.77-1.3-4.14-13.45,9.83-9.38a20.79,20.79,0,0,1,15.08,17.33S217.28,107.17,203.88,112.66Z" style="fill:#f5f5f5"></path><path d="M329.47,96.32c-2,.81-8.57-.17-8.57-.17l-.71.31A14.11,14.11,0,0,1,308,95.91h0a52.52,52.52,0,0,1-7.17-.14c-2.68-.54-6.66-2.66-5.67-9.33s11-.91,11-.91-2.89-9.39,6.87-6.55a14.51,14.51,0,0,1,10.53,12.11S338.83,92.49,329.47,96.32Z" style="fill:#f5f5f5"></path><path d="M150.44,120.07c-1.48-4.85-4.6-12.28-10-12.95a5.85,5.85,0,0,0-4.29,1.1c-3.11-6.81-9.46-15.2-22.31-18.93C90.47,82.49,97.4,105,97.4,105s-24-13.83-26.4,2.16,7.16,21.07,13.57,22.37c4.21.85,17.18.33,17.18.33a33.76,33.76,0,0,0,29.13,1.31l1.71-.72s15.78,2.34,20.54.39C166.62,125.33,158.81,121.91,150.44,120.07Z" style="fill:#f5f5f5"></path><path d="M281.73,149.75c-.12-5.27-1.47-16.81-10.92-18.65-4.42-.87-6.61,1.05-7.59,3.85a28.58,28.58,0,0,0-16.73-12.26c-19.56-5.69-13.77,13.14-13.77,13.14s-20.08-11.56-22.08,1.82,6,17.62,11.35,18.7c3.52.71,14.37.28,14.37.28a28.24,28.24,0,0,0,24.37,1.1l1.43-.61s13.2,2,17.18.33C288,153.92,286.18,151.42,281.73,149.75Z" style="fill:#f5f5f5"></path></g><g id="freepik--Shadow--inject-441"><ellipse id="freepik--path--inject-441" cx="245.18" cy="412.39" rx="193.89" ry="11.32" style="fill:#f5f5f5"></ellipse></g><g id="freepik--Crane--inject-441"><path d="M69.53,290s7,2.11,1.76,11.94,12.1-10.52,3.93-15S69.53,290,69.53,290Z" style="fill:#407BFF"></path><path d="M104.69,365a26.33,26.33,0,0,0,1.31,9.19L91.31,393a24,24,0,0,0-1.5,2.16c-1.56,2.49-4.26,4.62-4.71,8.47a37.18,37.18,0,0,1,4.59-6.28s-2.32,5.92-.89,9.14c0,0,.25-8.23,3.59-11.7a4.67,4.67,0,0,1,5.37-.72s.72-2-4.78-1.07c0,0,15-16.84,15-18.39s-1.79-5.25-1.19-9Z" style="fill:#263238"></path><path d="M112.46,365.51s2.9,7.1,2.78,9.49c-.1,2-2.77,27.31-3.59,34.75-.12,1.09.67,1.71,1.76,1.84,1.34.15,2.87,0,3,1.5h-18s3.25-1.91,4.93-1.91,6.21,1.55,6.44-.95,3.55-27.21,2-35.83c-.45-2.56-3.41-9.43-3.41-9.43Z" style="fill:#263238"></path><path d="M115.47,367s-11.14,3.38-20.85-3.15-13.76-20.48-13.76-20.48l7.07,3,11.78,9.2,8.12,5.13,8,5.57Z" style="fill:#263238"></path><path d="M115.47,367s-11.14,3.38-20.85-3.15-13.76-20.48-13.76-20.48l7.07,3,11.78,9.2,8.12,5.13,8,5.57Z" style="fill:#fff;opacity:0.5"></path><path d="M122.32,370.34A104.56,104.56,0,0,0,106,366c-8.12-1.35-21.08-6.21-24.31-19.19s-4-16.55,3.22-13.93,8,10.27,8,10.27l11.3,13.94,10.67,6s6.21,2.38,6.37,3.26S122.32,370.34,122.32,370.34Z" style="fill:#407BFF"></path><path d="M85.14,328.78s-11.14-4.3-10-16.88,11.55-14,5.81-26.51c0,0-4.45-15.28-20.38-3.66l-.39,4.14s4.45,1.59,14.25,2.47a5.65,5.65,0,0,1,.79,6.85c-2.23,4-10.9,15.52-7,25.63s6.52,14.57,6.92,19.35a6.19,6.19,0,0,0,.48-4.62,20.42,20.42,0,0,1,1.43,5.93c.08,2.67,1.12,10.38,1.12,10.38l.64-9.38s.58,9.31,2,12l-.49-10.14s1.51,9.34,3.18,10.77l-.87-11.72,3.18-12.08Z" style="fill:#407BFF"></path><path d="M85.14,328.78s-11.14-4.3-10-16.88,11.55-14,5.81-26.51c0,0-4.45-15.28-20.38-3.66l-.39,4.14s4.45,1.59,14.25,2.47a5.65,5.65,0,0,1,.79,6.85c-2.23,4-10.9,15.52-7,25.63s6.52,14.57,6.92,19.35a6.19,6.19,0,0,0,.48-4.62,20.42,20.42,0,0,1,1.43,5.93c.08,2.67,1.12,10.38,1.12,10.38l.64-9.38s.58,9.31,2,12l-.49-10.14s1.51,9.34,3.18,10.77l-.87-11.72,3.18-12.08Z" style="fill:#fff;opacity:0.5"></path><path d="M75.19,333.32l-.63-4.78,3.82,10V332l2.48,8,.83-5.58a45.1,45.1,0,0,0,1,8.64l-.06.26.87,11.72c-1.67-1.43-3.18-10.77-3.18-10.77l.49,10.14c-1.42-2.71-2-12-2-12l-.63,9.38s-1-7.71-1.12-10.38a20.42,20.42,0,0,0-1.43-5.93,6.19,6.19,0,0,1-.48,4.62c-.31-3.79-2-7.39-4.67-13.75Z" style="fill:#fff;opacity:0.5"></path><path d="M60.62,281.73C76.55,270.11,81,285.39,81,285.39H76l-1.51,2.95c-9.8-.88-14.25-2.47-14.25-2.47Z" style="fill:#fff;opacity:0.4"></path><path d="M60.62,281.73,63.49,284l-3.26,1.83-9.23-.4a1.11,1.11,0,0,1-.12-2.2Z" style="fill:#407BFF"></path><path d="M60.62,281.73,63.49,284l-3.26,1.83-9.23-.4a1.11,1.11,0,0,1-.12-2.2Z" style="fill:#fff;opacity:0.30000000000000004"></path><path d="M85.14,328.78s44-9.31,49.92,44.67c0,0-1.67,4.53-7.32,1.27s-10.83-7.88-20.14-11.23S72.41,355.61,85.14,328.78Z" style="fill:#407BFF"></path><path d="M85.14,328.78s44-9.31,49.92,44.67c0,0-1.67,4.53-7.32,1.27s-10.83-7.88-20.14-11.23S72.41,355.61,85.14,328.78Z" style="opacity:0.5"></path><g style="opacity:0.30000000000000004"><path d="M121.37,348.13s7,4.85,5.81,11.86C127.18,360,126.3,353,121.37,348.13Z" style="fill:#fff"></path><path d="M103.37,339.3s7,4.86,5.81,11.87C109.18,351.17,108.31,344.16,103.37,339.3Z" style="fill:#fff"></path><path d="M116.38,344.36s7,4.85,5.81,11.86C122.19,356.22,121.31,349.21,116.38,344.36Z" style="fill:#fff"></path><path d="M97.42,335.55s7,4.86,5.81,11.86C103.23,347.41,102.36,340.41,97.42,335.55Z" style="fill:#fff"></path><path d="M91.83,335s7.46,4.12,7,11.21C98.82,346.22,97.23,339.34,91.83,335Z" style="fill:#fff"></path><path d="M113.4,347.41s7,4.86,5.81,11.86C119.21,359.27,118.34,352.27,113.4,347.41Z" style="fill:#fff"></path><path d="M107.74,339.3s6.26,5.79,4.1,12.56C111.84,351.86,112,344.8,107.74,339.3Z" style="fill:#fff"></path></g><path d="M71.37,277.91s-2.15-14.81,0-14.93S73,272.17,73,272.17s2.62-9.91,5.38-8.76-3.07,10.44-3.07,10.44,6.29-6.75,8.2-5.19S77,275.72,77,275.72s8.15-3,8.83-.78-8.42,3-8.42,3,7.72.37,7.26,2.55S71.37,277.91,71.37,277.91Z" style="fill:#407BFF"></path><path d="M60.5,283s-4.16-6.25,5.67-7.88,6.25,6.62,6.25,6.62,3,10.51-6.6,7.87S60.5,283,60.5,283Z" style="fill:#263238"></path><path d="M67.05,282.37s4.15.49,3.56,3.5-3.34,2.33-6,1.87-3.68-2.69-2.18-4.37A4.09,4.09,0,0,1,67.05,282.37Z" style="fill:#fff;opacity:0.5"></path><path d="M67.05,282.37c.09.63-.17,1.2-.59,1.26s-.83-.4-.92-1,.16-1.2.58-1.27S67,281.73,67.05,282.37Z"></path><path d="M67.75,280.51a.33.33,0,0,1-.35.08,3.56,3.56,0,0,0-2.85.46.32.32,0,0,1-.43-.09.31.31,0,0,1,.09-.42,4.31,4.31,0,0,1,3.41-.53.31.31,0,0,1,.17.4A.21.21,0,0,1,67.75,280.51Z"></path></g><g id="freepik--Earth--inject-441"><path d="M260.57,231.44h2.15l2.1,77.86a2.49,2.49,0,0,1-2.49,2.55H261a2.48,2.48,0,0,1-2.48-2.55Z" style="fill:#407BFF"></path><path d="M260.57,231.44h2.15l2.1,77.86a2.49,2.49,0,0,1-2.49,2.55H261a2.48,2.48,0,0,1-2.48-2.55Z" style="fill:#fff;opacity:0.6000000000000001"></path><path d="M257.6,232.24l6.06.28a1.36,1.36,0,0,0,1.43-1.36h0a1.36,1.36,0,0,0-1.43-1.36l-6.06.28a1.08,1.08,0,0,0-1,1.08h0A1.08,1.08,0,0,0,257.6,232.24Z" style="fill:#407BFF"></path><path d="M262.36,232.09l-13,4.55a7.48,7.48,0,0,0-4,10.79h0a1.22,1.22,0,0,0,1.86.32l16.15-13.88h3l10.43,9a7.47,7.47,0,0,0,11.34-1.93h0a1.22,1.22,0,0,0-.66-1.77l-20.09-7-1.48-2.57L268.45,216a7.47,7.47,0,0,0-7.35-8.86h0a1.23,1.23,0,0,0-1.2,1.45l4,20.92Z" style="fill:#263238"></path><path d="M262.36,232.09l-13,4.55a7.48,7.48,0,0,0-4,10.79h0a1.22,1.22,0,0,0,1.86.32l16.15-13.88h3l10.43,9a7.47,7.47,0,0,0,11.34-1.93h0a1.22,1.22,0,0,0-.66-1.77l-20.09-7-1.48-2.57L268.45,216a7.47,7.47,0,0,0-7.35-8.86h0a1.23,1.23,0,0,0-1.2,1.45l4,20.92Z" style="fill:#fff;opacity:0.6000000000000001"></path><path d="M242.05,258h-1.42l-1.38,51.32a1.63,1.63,0,0,0,1.63,1.68h.91a1.63,1.63,0,0,0,1.64-1.68Z" style="fill:#407BFF"></path><path d="M242.05,258h-1.42l-1.38,51.32a1.63,1.63,0,0,0,1.63,1.68h.91a1.63,1.63,0,0,0,1.64-1.68Z" style="fill:#fff;opacity:0.6000000000000001"></path><path d="M244,258.54l-4,.19a.89.89,0,0,1-.94-.9h0a.91.91,0,0,1,.94-.9l4,.19a.71.71,0,0,1,.68.71h0A.71.71,0,0,1,244,258.54Z" style="fill:#407BFF"></path><path d="M240.86,258.45l8.56,3a4.93,4.93,0,0,1,2.64,7.11h0a.81.81,0,0,1-1.23.21l-10.64-9.15h-2l-6.87,5.91a4.93,4.93,0,0,1-7.48-1.27h0a.81.81,0,0,1,.43-1.17l13.25-4.64,1-1.7-1.68-8.9a4.93,4.93,0,0,1,4.84-5.84h0a.81.81,0,0,1,.8,1l-2.6,13.79Z" style="fill:#263238"></path><path d="M240.86,258.45l8.56,3a4.93,4.93,0,0,1,2.64,7.11h0a.81.81,0,0,1-1.23.21l-10.64-9.15h-2l-6.87,5.91a4.93,4.93,0,0,1-7.48-1.27h0a.81.81,0,0,1,.43-1.17l13.25-4.64,1-1.7-1.68-8.9a4.93,4.93,0,0,1,4.84-5.84h0a.81.81,0,0,1,.8,1l-2.6,13.79Z" style="fill:#fff;opacity:0.6000000000000001"></path><path d="M129.5,409.49c0,4,56,7.3,125,7.3s125-3.27,125-7.3a125,125,0,0,0-250,0Z" style="fill:#f5f5f5"></path><path d="M129.5,409.49c0,4,56,7.3,125,7.3s125-3.27,125-7.3a125,125,0,0,0-250,0Z" style="fill:#407BFF"></path><path d="M129.5,409.49c0,4,56,7.3,125,7.3s125-3.27,125-7.3a125,125,0,0,0-250,0Z" style="fill:#fff;opacity:0.4"></path><path d="M266.65,416.76c22.67-.13,43.58-.61,61.07-1.35l3.21-8a2.51,2.51,0,0,0,.17-1.3l-2.38-18.63,3.86-3,6.64-14.31a5.25,5.25,0,0,1,8.56-1.41l.52.55a5.38,5.38,0,0,1,.85,1.17L354.2,380a1.2,1.2,0,0,0,2.25-.72l0-8.34c0-.11,0-.23,0-.34l-1.09-16A5.19,5.19,0,0,0,355,353l-10.38-25.9a5.22,5.22,0,0,0-3.66-3.16l-2.69-.63a5.19,5.19,0,0,0-2.79.1l-7,2.21a5.24,5.24,0,0,1-2.36.18l-15.92-2.4a5.28,5.28,0,0,0-2,.08L297.49,326a4.74,4.74,0,0,1-1.06.14l-10.56.27a5.23,5.23,0,0,1-3.53-1.24L279,322.28a5.23,5.23,0,0,0-5.05-1l-2.83.94a5.31,5.31,0,0,1-1.42.26l-1.58.07a5.26,5.26,0,0,0-4.85,3.93l-.47,1.84a5.24,5.24,0,0,0,2.53,5.9l1.89,1.05a5.7,5.7,0,0,1,1.12.83l3,3,5.78,5.19a5.66,5.66,0,0,1,.62.67l1.81,2.31a5.25,5.25,0,0,1-1.29,7.64L273.39,358a5.07,5.07,0,0,1-.65.35l-.59.28a5.26,5.26,0,0,1-6.9-2.46l-2.61-5.3-.18-.34-2.82-4.79a5.24,5.24,0,0,0-6.91-2l-6.89,3.52a5.4,5.4,0,0,1-.94.37l-3.85,1.11a5.26,5.26,0,0,0-3,2.22l-4.4,6.9a5.25,5.25,0,0,0,1.41,7.44l3.95,2.56a5.24,5.24,0,0,1,2.27,5.46l-.42,2.06-3.25,2.42L251,384.23l2.38,5.88,5.29,6a2.77,2.77,0,0,1,.48.77l2.94,7.43a2.09,2.09,0,0,0,.14.3l4.65,8.44a2.6,2.6,0,0,1,.26,1.87Zm88.46-43.21,0-.05,0,.05Z" style="fill:#407BFF"></path><path d="M182.36,307.4l2.54.66a3,3,0,0,0,2.59,1l11.79-1.3a3,3,0,0,1,1.37.17l8.58,3.1a3,3,0,0,1,.81.44l3.35,2.55a3,3,0,0,1-.33,5.07l-2,1.14-.35.23-10,7.69a3.07,3.07,0,0,0-1.19,2.43l0,9a3.1,3.1,0,0,1-1,2.27l-10.81,9.82a3,3,0,0,1-4.89-1.13l-.24-.63a3,3,0,0,0-1.16-1.42l-11.21-7.41-.12-.06-10.64-4.6a.81.81,0,0,1-.48-.82.81.81,0,0,0-1.47-.53s-5.59,5.65-4.45,7.52c.07.12,6.73,3.27,6.73,3.27a.81.81,0,0,1-.22,1.52s-8.64.24-10.82,1.91c-2.81,2.14-6,12.77-6,12.77a.8.8,0,0,0,.21.94l.49.42a.4.4,0,0,0,.15.1l.37.2a.81.81,0,0,1,.29,1.16l-3.83,5.72a1.24,1.24,0,0,0-.1.2L138,378.31h0l4.33,5a.83.83,0,0,1,.19.69l-2.11,10.59a.8.8,0,0,0,.12.6s7.59,3.08,6.08,10.92c-.49,2.57-5.14,4.53-9.88,5.87-4.68-.77-7.24-1.59-7.24-2.45A124.84,124.84,0,0,1,182.36,307.4Z" style="fill:#407BFF"></path><path d="M323.71,283.48h-21.3v3.75h8v53.86a2.63,2.63,0,0,0,2.63,2.63h0a2.62,2.62,0,0,0,2.63-2.63V287.23h8Z" style="fill:#407BFF"></path><path d="M323.71,283.48h-21.3v3.75h8v53.86a2.63,2.63,0,0,0,2.63,2.63h0a2.62,2.62,0,0,0,2.63-2.63V287.23h8Z" style="fill:#fff;opacity:0.7000000000000001"></path><polygon points="318.05 314.82 285.2 314.82 272.09 265.88 304.93 265.88 318.05 314.82" style="fill:#263238"></polygon><g style="opacity:0.2"><polygon points="298.1 265.88 287.55 265.88 282.34 304.14 285.2 314.82 291.44 314.82 298.1 265.88" style="fill:#fff"></polygon><polygon points="303.68 265.88 301.13 265.88 294.46 314.82 297.01 314.82 303.68 265.88" style="fill:#fff"></polygon></g><path d="M289,265.42H271.43l4.39,16.37.31,1.19,4.07,15.18.32,1.18,4.38,16.37h33.92l-4.38-16.37-.32-1.18L310.05,283l-.31-1.19-4.39-16.37Zm25.16,37.22h-3.3l-.89-3.3h3.3Zm-38-24.15h3.3l.88,3.3H277Zm26.05-8.18h3.3l1,3.69h-3.3Zm.6,3.69h-3.7l-1-3.69h3.7Zm1.09,4.09h-3.69l-1-3.69h3.69Zm1,3.7h-3.69l-.89-3.3H304Zm3.4,12.67h-3.7l-1-3.7h3.7Zm1,3.7h-3.7l-.88-3.3h3.69Zm2.3,8.57h-3.7l-1-3.69h3.7ZM286.39,303h3.7l1,3.69h-3.7Zm-1-3.7h3.7l.88,3.3h-3.69ZM282,286.67h3.69l1,3.7H283ZM281,283h3.69l.89,3.3h-3.7Zm-2.3-8.58h3.69l1,3.69h-3.69Zm21,3.69h-3.7l-1-3.69h3.7Zm3.29,12.28h-3.7l-1-3.7h3.7Zm1.1,4.09h-3.7l-1-3.7h3.7Zm-17-3.7h3.7l1,3.7h-3.69Zm-1.09-4.09h3.69l1,3.7h-3.69Zm12.87,3.7h-3.3l-1-3.7H298Zm1.09,4.09h-3.3l-1-3.7h3.3Zm-8.77-3.7h3.3l1,3.7h-3.3Zm-1.1-4.09h3.3l1,3.7h-3.3Zm-1-3.69h3.3l.88,3.3h-3.3Zm6.48,11.88.89,3.3h-3.3l-.89-3.3Zm5.37,3.3h-3.3l-.88-3.3h3.3Zm-6.48-11.88-.88-3.3H297l.88,3.3Zm2.1-4.49h-3.3l-.89-3.3h3.3Zm-4.49,0h-3.3l-.88-3.3h3.3Zm-3.69,0h-3.7l-.88-3.3h3.69ZM285.11,283h3.69l.89,3.3H286ZM292,294.86l.88,3.3h-3.69l-.89-3.3Zm-2.5,4.48h3.7l.88,3.3h-3.69Zm4.1,0h3.3l.88,3.3h-3.3Zm4.48,0h3.3l.89,3.3H299Zm3.7,0h3.69l.89,3.3h-3.7Zm3.38-1.18h-3.7l-.88-3.3h3.69Zm-6.88-11.88-.89-3.3h3.7l.88,3.3Zm2.49-4.49h-3.7l-.88-3.3h3.7Zm-5.08-3.7h-3.3l-1-3.69h3.3Zm-4.49,0h-3.3l-1-3.69h3.3Zm-3.69,0h-3.7l-1-3.69h3.7Zm-4,.4.88,3.3H280.7l-.89-3.3Zm3.29,12.27,1,3.7h-3.7l-1-3.7Zm-3.1,3.7h-3.3l-1-3.7h3.3Zm4.2.4.88,3.3h-3.7l-.88-3.3Zm2.58,8.18h3.7l1,3.69h-3.7Zm4.1,0h3.3l1,3.69h-3.3Zm4.48,0h3.3l1,3.69h-3.3Zm3.7,0h3.69l1,3.69h-3.69Zm4-.4-.88-3.3h3.7l.88,3.3Zm-3.29-12.27-1-3.7h3.7l1,3.7Zm3.11-3.7h3.3l1,3.7h-3.3Zm-4.2-.39-.89-3.3h3.7l.88,3.3ZM298.67,274H295l-1-3.69h3.69Zm-4.09,0h-3.3l-1-3.69h3.3Zm-4.48,0h-3.3l-1-3.69h3.29Zm-3.7,0h-3.7l-1-3.69h3.7Zm-4.09,0h-3.7l-1-3.69h3.7Zm-4.09,0h-3.3l-1-3.69h3.3Zm.1.4,1,3.69H276l-1-3.69Zm2.3,8.58.89,3.3h-3.3l-.89-3.3Zm1,3.69,1,3.7h-3.3l-1-3.7Zm-1.11,8.19h3.3l.89,3.3h-3.3Zm4.51,4.48.88,3.3h-3.3l-.88-3.3Zm1,3.7,1,3.69h-3.3l-1-3.69Zm-2.21,4.09h3.3l1,3.7h-3.3Zm3.7,0h3.69l1,3.7h-3.69Zm4.09,0h3.7l1,3.7h-3.7Zm4.09,0H299l1,3.7h-3.3Zm4.49,0h3.3l1,3.7h-3.3Zm3.69,0h3.7l1,3.7h-3.69Zm4.1,0h3.69l1,3.7h-3.69Zm4.09,0h3.3l1,3.7H313Zm-.11-.4-1-3.69h3.3l1,3.69Zm-2.3-8.57-.88-3.3h3.3l.88,3.3Zm-1-3.7-1-3.7H311l1,3.7Zm1.11-8.18h-3.3l-.88-3.3h3.3Zm-4.5-4.49-.89-3.3h3.3l.89,3.3Zm-1-3.7-1-3.69h3.3l1,3.69Zm.22-11.48.89,3.3h-3.31l-.88-3.3Zm-3.7,0,.89,3.3H298l-.88-3.3Zm-4.09,0,.89,3.3h-3.7l-.88-3.3Zm-3.2,3.3h-3.3l-.89-3.3h3.3Zm-5.38-3.3.89,3.3h-3.3l-.89-3.3Zm-3.69,0,.88,3.3h-3.69l-.89-3.3Zm-4.09,0,.88,3.3h-3.69l-.89-3.3Zm-3.21,3.3h-3.3l-.88-3.3h3.3Zm8.65,44.61-.88-3.3h3.3l.88,3.3Zm3.7,0-.88-3.3h3.69l.88,3.3Zm4.09,0-.88-3.3h3.69l.89,3.3Zm3.21-3.3h3.3l.88,3.3h-3.3Zm5.37,3.3-.88-3.3h3.3l.88,3.3Zm3.7,0-.89-3.3h3.7l.88,3.3Zm4.09,0-.89-3.3h3.7l.88,3.3Zm3.2-3.3h3.3l.89,3.3H314Z" style="fill:#407BFF"></path><path d="M289,265.42H271.43l4.39,16.37.31,1.19,4.07,15.18.32,1.18,4.38,16.37h33.92l-4.38-16.37-.32-1.18L310.05,283l-.31-1.19-4.39-16.37Zm25.16,37.22h-3.3l-.89-3.3h3.3Zm-38-24.15h3.3l.88,3.3H277Zm26.05-8.18h3.3l1,3.69h-3.3Zm.6,3.69h-3.7l-1-3.69h3.7Zm1.09,4.09h-3.69l-1-3.69h3.69Zm1,3.7h-3.69l-.89-3.3H304Zm3.4,12.67h-3.7l-1-3.7h3.7Zm1,3.7h-3.7l-.88-3.3h3.69Zm2.3,8.57h-3.7l-1-3.69h3.7ZM286.39,303h3.7l1,3.69h-3.7Zm-1-3.7h3.7l.88,3.3h-3.69ZM282,286.67h3.69l1,3.7H283ZM281,283h3.69l.89,3.3h-3.7Zm-2.3-8.58h3.69l1,3.69h-3.69Zm21,3.69h-3.7l-1-3.69h3.7Zm3.29,12.28h-3.7l-1-3.7h3.7Zm1.1,4.09h-3.7l-1-3.7h3.7Zm-17-3.7h3.7l1,3.7h-3.69Zm-1.09-4.09h3.69l1,3.7h-3.69Zm12.87,3.7h-3.3l-1-3.7H298Zm1.09,4.09h-3.3l-1-3.7h3.3Zm-8.77-3.7h3.3l1,3.7h-3.3Zm-1.1-4.09h3.3l1,3.7h-3.3Zm-1-3.69h3.3l.88,3.3h-3.3Zm6.48,11.88.89,3.3h-3.3l-.89-3.3Zm5.37,3.3h-3.3l-.88-3.3h3.3Zm-6.48-11.88-.88-3.3H297l.88,3.3Zm2.1-4.49h-3.3l-.89-3.3h3.3Zm-4.49,0h-3.3l-.88-3.3h3.3Zm-3.69,0h-3.7l-.88-3.3h3.69ZM285.11,283h3.69l.89,3.3H286ZM292,294.86l.88,3.3h-3.69l-.89-3.3Zm-2.5,4.48h3.7l.88,3.3h-3.69Zm4.1,0h3.3l.88,3.3h-3.3Zm4.48,0h3.3l.89,3.3H299Zm3.7,0h3.69l.89,3.3h-3.7Zm3.38-1.18h-3.7l-.88-3.3h3.69Zm-6.88-11.88-.89-3.3h3.7l.88,3.3Zm2.49-4.49h-3.7l-.88-3.3h3.7Zm-5.08-3.7h-3.3l-1-3.69h3.3Zm-4.49,0h-3.3l-1-3.69h3.3Zm-3.69,0h-3.7l-1-3.69h3.7Zm-4,.4.88,3.3H280.7l-.89-3.3Zm3.29,12.27,1,3.7h-3.7l-1-3.7Zm-3.1,3.7h-3.3l-1-3.7h3.3Zm4.2.4.88,3.3h-3.7l-.88-3.3Zm2.58,8.18h3.7l1,3.69h-3.7Zm4.1,0h3.3l1,3.69h-3.3Zm4.48,0h3.3l1,3.69h-3.3Zm3.7,0h3.69l1,3.69h-3.69Zm4-.4-.88-3.3h3.7l.88,3.3Zm-3.29-12.27-1-3.7h3.7l1,3.7Zm3.11-3.7h3.3l1,3.7h-3.3Zm-4.2-.39-.89-3.3h3.7l.88,3.3ZM298.67,274H295l-1-3.69h3.69Zm-4.09,0h-3.3l-1-3.69h3.3Zm-4.48,0h-3.3l-1-3.69h3.29Zm-3.7,0h-3.7l-1-3.69h3.7Zm-4.09,0h-3.7l-1-3.69h3.7Zm-4.09,0h-3.3l-1-3.69h3.3Zm.1.4,1,3.69H276l-1-3.69Zm2.3,8.58.89,3.3h-3.3l-.89-3.3Zm1,3.69,1,3.7h-3.3l-1-3.7Zm-1.11,8.19h3.3l.89,3.3h-3.3Zm4.51,4.48.88,3.3h-3.3l-.88-3.3Zm1,3.7,1,3.69h-3.3l-1-3.69Zm-2.21,4.09h3.3l1,3.7h-3.3Zm3.7,0h3.69l1,3.7h-3.69Zm4.09,0h3.7l1,3.7h-3.7Zm4.09,0H299l1,3.7h-3.3Zm4.49,0h3.3l1,3.7h-3.3Zm3.69,0h3.7l1,3.7h-3.69Zm4.1,0h3.69l1,3.7h-3.69Zm4.09,0h3.3l1,3.7H313Zm-.11-.4-1-3.69h3.3l1,3.69Zm-2.3-8.57-.88-3.3h3.3l.88,3.3Zm-1-3.7-1-3.7H311l1,3.7Zm1.11-8.18h-3.3l-.88-3.3h3.3Zm-4.5-4.49-.89-3.3h3.3l.89,3.3Zm-1-3.7-1-3.69h3.3l1,3.69Zm.22-11.48.89,3.3h-3.31l-.88-3.3Zm-3.7,0,.89,3.3H298l-.88-3.3Zm-4.09,0,.89,3.3h-3.7l-.88-3.3Zm-3.2,3.3h-3.3l-.89-3.3h3.3Zm-5.38-3.3.89,3.3h-3.3l-.89-3.3Zm-3.69,0,.88,3.3h-3.69l-.89-3.3Zm-4.09,0,.88,3.3h-3.69l-.89-3.3Zm-3.21,3.3h-3.3l-.88-3.3h3.3Zm8.65,44.61-.88-3.3h3.3l.88,3.3Zm3.7,0-.88-3.3h3.69l.88,3.3Zm4.09,0-.88-3.3h3.69l.89,3.3Zm3.21-3.3h3.3l.88,3.3h-3.3Zm5.37,3.3-.88-3.3h3.3l.88,3.3Zm3.7,0-.89-3.3h3.7l.88,3.3Zm4.09,0-.89-3.3h3.7l.88,3.3Zm3.2-3.3h3.3l.89,3.3H314Z" style="fill:#fff;opacity:0.7000000000000001"></path><polygon points="353.82 314.82 320.98 314.82 307.86 265.88 340.71 265.88 353.82 314.82" style="fill:#263238"></polygon><g style="opacity:0.2"><polygon points="333.88 265.88 323.33 265.88 318.12 304.14 320.98 314.82 327.21 314.82 333.88 265.88" style="fill:#fff"></polygon><polygon points="339.45 265.88 336.91 265.88 330.24 314.82 332.79 314.82 339.45 265.88" style="fill:#fff"></polygon></g><path d="M324.76,265.42H307.21l4.38,16.37.32,1.19L316,298.16l.32,1.18,4.38,16.37H354.6l-4.38-16.37-.32-1.18L345.83,283l-.32-1.19-4.38-16.37Zm25.15,37.22h-3.3l-.88-3.3H349Zm-38-24.15h3.31l.88,3.3h-3.3ZM338,270.31h3.3l1,3.69h-3.3Zm.59,3.69h-3.69l-1-3.69h3.69Zm1.1,4.09h-3.7l-1-3.69h3.7Zm1,3.7h-3.7l-.88-3.3h3.69ZM344,294.46h-3.69l-1-3.7H343Zm1,3.7h-3.69l-.89-3.3h3.7Zm2.3,8.57h-3.69l-1-3.69h3.69ZM322.17,303h3.69l1,3.69h-3.69Zm-1-3.7h3.69l.89,3.3h-3.7Zm-3.4-12.67h3.7l1,3.7h-3.7Zm-1-3.69h3.7l.88,3.3h-3.69Zm-2.3-8.58h3.7l1,3.69h-3.7Zm21.06,3.69h-3.7l-1-3.69h3.7Zm3.29,12.28h-3.7l-1-3.7h3.7Zm1.09,4.09h-3.69l-1-3.7h3.69Zm-17-3.7h3.7l1,3.7H324Zm-1.1-4.09h3.7l1,3.7h-3.69Zm12.87,3.7h-3.3l-1-3.7h3.3Zm1.1,4.09h-3.3l-1-3.7h3.3Zm-8.78-3.7h3.3l1,3.7h-3.3ZM326,286.67h3.3l1,3.7H327ZM325,283h3.3l.88,3.3h-3.3Zm6.48,11.88.88,3.3H329l-.88-3.3Zm5.37,3.3h-3.3l-.88-3.3H336Zm-6.48-11.88-.89-3.3h3.3l.89,3.3Zm2.1-4.49h-3.3l-.89-3.3h3.3Zm-4.49,0h-3.3l-.89-3.3h3.3Zm-3.7,0h-3.69l-.89-3.3h3.7ZM320.88,283h3.7l.88,3.3h-3.69Zm6.88,11.88.89,3.3H325l-.88-3.3Zm-2.49,4.48H329l.88,3.3h-3.7Zm4.09,0h3.3l.89,3.3h-3.3Zm4.49,0h3.3l.88,3.3h-3.3Zm3.69,0h3.7l.88,3.3h-3.69Zm3.38-1.18h-3.69l-.89-3.3H340ZM334,286.28l-.88-3.3h3.69l.89,3.3Zm2.5-4.49h-3.7l-.88-3.3h3.69Zm-5.08-3.7h-3.31l-1-3.69h3.31Zm-4.49,0h-3.3l-1-3.69H326Zm-3.7,0h-3.69l-1-3.69h3.69Zm-4,.4.88,3.3h-3.69l-.89-3.3Zm3.29,12.27,1,3.7h-3.7l-1-3.7Zm-3.11,3.7h-3.3l-1-3.7h3.3Zm4.2.4.89,3.3h-3.7l-.88-3.3Zm2.59,8.18H330l1,3.69h-3.7Zm4.09,0h3.3l1,3.69h-3.3Zm4.49,0h3.3l1,3.69h-3.3Zm3.69,0h3.7l1,3.69h-3.69Zm4-.4-.88-3.3h3.69l.89,3.3Zm-3.29-12.27-1-3.7h3.7l1,3.7Zm3.1-3.7h3.3l1,3.7h-3.3Zm-4.2-.39-.88-3.3H341l.88,3.3ZM334.45,274h-3.7l-1-3.69h3.7Zm-4.09,0h-3.3l-1-3.69h3.3Zm-4.49,0h-3.3l-1-3.69h3.3Zm-3.69,0h-3.7l-1-3.69h3.7Zm-4.1,0h-3.69l-1-3.69h3.69ZM314,274h-3.3l-1-3.69H313Zm.11.4,1,3.69h-3.3l-1-3.69Zm2.3,8.58.88,3.3H314l-.88-3.3Zm1,3.69,1,3.7h-3.3l-1-3.7Zm-1.11,8.19h3.3l.88,3.3h-3.3Zm4.5,4.48.89,3.3h-3.3l-.89-3.3Zm1,3.7,1,3.69h-3.3l-1-3.69Zm-2.2,4.09h3.3l1,3.7h-3.3Zm3.7,0H327l1,3.7h-3.69Zm4.09,0h3.69l1,3.7h-3.69Zm4.09,0h3.3l1,3.7h-3.3Zm4.49,0h3.3l1,3.7h-3.3Zm3.69,0h3.7l1,3.7h-3.7Zm4.09,0h3.7l1,3.7h-3.7Zm4.09,0h3.3l1,3.7h-3.3Zm-.1-.4-1-3.69H350l1,3.69Zm-2.3-8.57-.88-3.3h3.3l.88,3.3Zm-1-3.7-1-3.7h3.3l1,3.7Zm1.11-8.18h-3.3l-.89-3.3h3.3ZM341,281.79l-.88-3.3h3.3l.88,3.3Zm-1-3.7-1-3.69h3.3l1,3.69Zm.23-11.48.88,3.3h-3.3l-.88-3.3Zm-3.7,0,.89,3.3h-3.7l-.88-3.3Zm-4.09,0,.88,3.3h-3.69l-.89-3.3Zm-3.21,3.3H326l-.88-3.3h3.3Zm-5.37-3.3.89,3.3h-3.3l-.89-3.3Zm-3.69,0,.88,3.3h-3.7l-.88-3.3Zm-4.1,0,.89,3.3h-3.7l-.88-3.3Zm-3.2,3.3h-3.3l-.89-3.3H312Zm8.65,44.61-.88-3.3H324l.88,3.3Zm3.7,0-.89-3.3h3.7l.88,3.3Zm4.09,0-.89-3.3h3.7l.88,3.3Zm3.2-3.3h3.3l.89,3.3h-3.3Zm5.38,3.3-.89-3.3h3.3l.89,3.3Zm3.69,0-.88-3.3h3.69l.89,3.3Zm4.09,0-.88-3.3h3.69l.89,3.3Zm3.21-3.3h3.3l.89,3.3h-3.31Z" style="fill:#407BFF"></path><path d="M324.76,265.42H307.21l4.38,16.37.32,1.19L316,298.16l.32,1.18,4.38,16.37H354.6l-4.38-16.37-.32-1.18L345.83,283l-.32-1.19-4.38-16.37Zm25.15,37.22h-3.3l-.88-3.3H349Zm-38-24.15h3.31l.88,3.3h-3.3ZM338,270.31h3.3l1,3.69h-3.3Zm.59,3.69h-3.69l-1-3.69h3.69Zm1.1,4.09h-3.7l-1-3.69h3.7Zm1,3.7h-3.7l-.88-3.3h3.69ZM344,294.46h-3.69l-1-3.7H343Zm1,3.7h-3.69l-.89-3.3h3.7Zm2.3,8.57h-3.69l-1-3.69h3.69ZM322.17,303h3.69l1,3.69h-3.69Zm-1-3.7h3.69l.89,3.3h-3.7Zm-3.4-12.67h3.7l1,3.7h-3.7Zm-1-3.69h3.7l.88,3.3h-3.69Zm-2.3-8.58h3.7l1,3.69h-3.7Zm21.06,3.69h-3.7l-1-3.69h3.7Zm3.29,12.28h-3.7l-1-3.7h3.7Zm1.09,4.09h-3.69l-1-3.7h3.69Zm-17-3.7h3.7l1,3.7H324Zm-1.1-4.09h3.7l1,3.7h-3.69Zm12.87,3.7h-3.3l-1-3.7h3.3Zm1.1,4.09h-3.3l-1-3.7h3.3Zm-8.78-3.7h3.3l1,3.7h-3.3ZM326,286.67h3.3l1,3.7H327ZM325,283h3.3l.88,3.3h-3.3Zm6.48,11.88.88,3.3H329l-.88-3.3Zm5.37,3.3h-3.3l-.88-3.3H336Zm-6.48-11.88-.89-3.3h3.3l.89,3.3Zm2.1-4.49h-3.3l-.89-3.3h3.3Zm-4.49,0h-3.3l-.89-3.3h3.3Zm-3.7,0h-3.69l-.89-3.3h3.7ZM320.88,283h3.7l.88,3.3h-3.69Zm6.88,11.88.89,3.3H325l-.88-3.3Zm-2.49,4.48H329l.88,3.3h-3.7Zm4.09,0h3.3l.89,3.3h-3.3Zm4.49,0h3.3l.88,3.3h-3.3Zm3.69,0h3.7l.88,3.3h-3.69Zm3.38-1.18h-3.69l-.89-3.3H340ZM334,286.28l-.88-3.3h3.69l.89,3.3Zm2.5-4.49h-3.7l-.88-3.3h3.69Zm-5.08-3.7h-3.31l-1-3.69h3.31Zm-4.49,0h-3.3l-1-3.69H326Zm-3.7,0h-3.69l-1-3.69h3.69Zm-4,.4.88,3.3h-3.69l-.89-3.3Zm3.29,12.27,1,3.7h-3.7l-1-3.7Zm-3.11,3.7h-3.3l-1-3.7h3.3Zm4.2.4.89,3.3h-3.7l-.88-3.3Zm2.59,8.18H330l1,3.69h-3.7Zm4.09,0h3.3l1,3.69h-3.3Zm4.49,0h3.3l1,3.69h-3.3Zm3.69,0h3.7l1,3.69h-3.69Zm4-.4-.88-3.3h3.69l.89,3.3Zm-3.29-12.27-1-3.7h3.7l1,3.7Zm3.1-3.7h3.3l1,3.7h-3.3Zm-4.2-.39-.88-3.3H341l.88,3.3ZM334.45,274h-3.7l-1-3.69h3.7Zm-4.09,0h-3.3l-1-3.69h3.3Zm-4.49,0h-3.3l-1-3.69h3.3Zm-3.69,0h-3.7l-1-3.69h3.7Zm-4.1,0h-3.69l-1-3.69h3.69ZM314,274h-3.3l-1-3.69H313Zm.11.4,1,3.69h-3.3l-1-3.69Zm2.3,8.58.88,3.3H314l-.88-3.3Zm1,3.69,1,3.7h-3.3l-1-3.7Zm-1.11,8.19h3.3l.88,3.3h-3.3Zm4.5,4.48.89,3.3h-3.3l-.89-3.3Zm1,3.7,1,3.69h-3.3l-1-3.69Zm-2.2,4.09h3.3l1,3.7h-3.3Zm3.7,0H327l1,3.7h-3.69Zm4.09,0h3.69l1,3.7h-3.69Zm4.09,0h3.3l1,3.7h-3.3Zm4.49,0h3.3l1,3.7h-3.3Zm3.69,0h3.7l1,3.7h-3.7Zm4.09,0h3.7l1,3.7h-3.7Zm4.09,0h3.3l1,3.7h-3.3Zm-.1-.4-1-3.69H350l1,3.69Zm-2.3-8.57-.88-3.3h3.3l.88,3.3Zm-1-3.7-1-3.7h3.3l1,3.7Zm1.11-8.18h-3.3l-.89-3.3h3.3ZM341,281.79l-.88-3.3h3.3l.88,3.3Zm-1-3.7-1-3.69h3.3l1,3.69Zm.23-11.48.88,3.3h-3.3l-.88-3.3Zm-3.7,0,.89,3.3h-3.7l-.88-3.3Zm-4.09,0,.88,3.3h-3.69l-.89-3.3Zm-3.21,3.3H326l-.88-3.3h3.3Zm-5.37-3.3.89,3.3h-3.3l-.89-3.3Zm-3.69,0,.88,3.3h-3.7l-.88-3.3Zm-4.1,0,.89,3.3h-3.7l-.88-3.3Zm-3.2,3.3h-3.3l-.89-3.3H312Zm8.65,44.61-.88-3.3H324l.88,3.3Zm3.7,0-.89-3.3h3.7l.88,3.3Zm4.09,0-.89-3.3h3.7l.88,3.3Zm3.2-3.3h3.3l.89,3.3h-3.3Zm5.38,3.3-.89-3.3h3.3l.89,3.3Zm3.69,0-.88-3.3h3.69l.89,3.3Zm4.09,0-.88-3.3h3.69l.89,3.3Zm3.21-3.3h3.3l.89,3.3h-3.31Z" style="fill:#fff;opacity:0.7000000000000001"></path><polygon points="318.93 317.55 307.21 317.55 302.14 317.55 302.14 331.77 307.21 331.77 318.93 331.77 324 331.77 324 317.55 318.93 317.55" style="fill:#263238"></polygon><polygon points="318.93 317.55 307.21 317.55 302.14 317.55 302.14 331.77 307.21 331.77 318.93 331.77 324 331.77 324 317.55 318.93 317.55" style="fill:#fff;opacity:0.30000000000000004"></polygon><rect x="302.14" y="317.55" width="5.07" height="14.22" style="fill:#263238"></rect><polygon points="319.5 323.71 315.99 323.71 317.47 319.72 311.57 325.61 315.08 325.61 313.61 329.6 319.5 323.71" style="fill:#fff"></polygon><path d="M181.36,264c0-2.91,2.65-5.38,6.34-6.33a11.67,11.67,0,0,1,7.31-2.35,13.77,13.77,0,0,1,2,.14,8.27,8.27,0,0,1,6.28-2.51c4,0,7.29,2.28,7.29,5.1a4.58,4.58,0,0,1-2.41,3.77,4.85,4.85,0,0,1,1.19,1.67,9.24,9.24,0,0,1,4.9-1.33c4,0,7.29,2.28,7.29,5.1,0,2-1.68,3.75-4.11,4.58,3.08.6,5.33,2.56,5.33,4.9,0,2.82-3.26,5.1-7.29,5.1a10.77,10.77,0,0,1-1.52-.11c-.89,2.11-3.68,3.66-7,3.66-3.64,0-6.64-1.86-7.19-4.29a9.72,9.72,0,0,1-3.78.74c-4,0-7.29-2.28-7.29-5.1a3.89,3.89,0,0,1,.71-2.19,3.91,3.91,0,0,1-.71-2.19,3.78,3.78,0,0,1,.44-1.75C184.69,270,181.36,267.24,181.36,264Z" style="fill:#407BFF"></path><path d="M196.93,277.09a15.58,15.58,0,0,1,2.73.24c.85-1.12,3.41-1.94,6.43-1.94s5.57.81,6.42,1.93a15.3,15.3,0,0,1,2.71-.23c3.2,0,5.87.91,6.55,2.13a8.18,8.18,0,0,1-6.34,2.59,10.77,10.77,0,0,1-1.52-.11c-.89,2.11-3.68,3.66-7,3.66-3.64,0-6.64-1.86-7.19-4.29a9.72,9.72,0,0,1-3.78.74,8.7,8.7,0,0,1-5.76-2h0C190.19,278.32,193.21,277.09,196.93,277.09Z" style="opacity:0.2"></path><path d="M193,270l-6.53-5.71.35-.63,6.43,5.13,2.75-8.61.79.25-2.71,9.15,10.47,19h.13l6.19-10.9a2.68,2.68,0,0,0,.25-2.07l-1.4-4.94.54-.05,1.92,5.11a2.4,2.4,0,0,1,0,1.69l-1.36,3.44,5.42-4,.51.64-6.82,5.64s-2.84,5.94-3.17,8.09c-.84,5.58.89,19.87,1.75,26.27a2.82,2.82,0,0,1-2.79,3.19h-1.79a2.81,2.81,0,0,1-2.79-3.19c.85-6.37,2.54-20.53,1.55-26C201.61,285.72,193,270,193,270Z" style="fill:#263238"></path><path d="M198.07,260.21s3.4-1.89,4,1.4C202,261.61,199.33,262.68,198.07,260.21Z" style="opacity:0.2"></path><path d="M182.47,261.53s3.39-1.89,4,1.4C186.44,262.93,183.73,264,182.47,261.53Z" style="opacity:0.2"></path><path d="M213.54,264.14s3.39-1.88,4,1.41C217.51,265.55,214.8,266.61,213.54,264.14Z" style="fill:#fff;opacity:0.2"></path><path d="M208.7,266.44s1.91-3.38,4.12-.88C212.82,265.56,211.06,267.89,208.7,266.44Z" style="fill:#fff;opacity:0.2"></path><path d="M213.51,266.39s3.83.62,2.25,3.57C215.76,270,213,269.11,213.51,266.39Z" style="fill:#fff;opacity:0.2"></path><path d="M191.15,260.42s2.48-3,4.21-.13C195.36,260.29,193.22,262.26,191.15,260.42Z" style="opacity:0.2"></path><path d="M198,262.07s2.61.69,1.32,2.62A2.19,2.19,0,0,1,198,262.07Z" style="opacity:0.2"></path><path d="M217.26,276s1.62-2.16,2.92-.23A2.2,2.2,0,0,1,217.26,276Z" style="opacity:0.2"></path><path d="M207.5,273.56s2.67-.38,2.23,1.9A2.19,2.19,0,0,1,207.5,273.56Z" style="opacity:0.2"></path><path d="M183.18,265.93s.66-2.62,2.6-1.34A2.19,2.19,0,0,1,183.18,265.93Z" style="opacity:0.2"></path><polygon points="293 362.58 293.79 378.31 295.59 381.39 291.78 380.25 287.33 381.39 290 376.85 290.57 362.58 293 362.58" style="fill:#263238"></polygon><polygon points="291.7 334.54 296.24 344.41 293.97 343.58 297.86 349.62 294.78 349.07 299 356.88 296.24 356.19 300.13 366.47 295.92 364.69 295.11 366.47 291.7 364.83 286.03 366.47 287.16 364.28 283.44 365.65 287.65 356.19 285.22 357.84 288.3 350.51 286.19 351.81 289.92 343.31 287.97 344 291.7 334.54" style="fill:#407BFF"></polygon><polygon points="291.7 334.54 296.24 344.41 293.97 343.58 297.86 349.62 294.78 349.07 299 356.88 296.24 356.19 300.13 366.47 295.92 364.69 295.11 366.47 291.7 364.83 286.03 366.47 287.16 364.28 283.44 365.65 287.65 356.19 285.22 357.84 288.3 350.51 286.19 351.81 289.92 343.31 287.97 344 291.7 334.54" style="opacity:0.30000000000000004"></polygon><polygon points="319.28 392.1 320.07 408.02 321.9 411.13 318.05 409.99 313.53 411.13 316.24 406.54 316.81 392.1 319.28 392.1" style="fill:#263238"></polygon><polygon points="317.96 363.72 322.56 373.71 320.26 372.87 324.2 378.98 321.08 378.42 325.35 386.33 322.56 385.64 326.5 396.04 322.23 394.24 321.41 396.04 317.96 394.38 312.22 396.04 313.37 393.82 309.6 395.21 313.86 385.64 311.4 387.3 314.52 379.88 312.38 381.2 316.16 372.6 314.19 373.29 317.96 363.72" style="fill:#407BFF"></polygon><polygon points="317.96 363.72 322.56 373.71 320.26 372.87 324.2 378.98 321.08 378.42 325.35 386.33 322.56 385.64 326.5 396.04 322.23 394.24 321.41 396.04 317.96 394.38 312.22 396.04 313.37 393.82 309.6 395.21 313.86 385.64 311.4 387.3 314.52 379.88 312.38 381.2 316.16 372.6 314.19 373.29 317.96 363.72" style="opacity:0.30000000000000004"></polygon><polygon points="172.48 318.92 173 329.35 174.2 331.39 171.67 330.64 168.72 331.39 170.49 328.38 170.87 318.92 172.48 318.92" style="fill:#263238"></polygon><polygon points="171.62 300.32 174.63 306.86 173.13 306.32 175.71 310.32 173.66 309.95 176.46 315.14 174.63 314.68 177.21 321.5 174.41 320.32 173.88 321.5 171.62 320.41 167.86 321.5 168.61 320.05 166.13 320.96 168.93 314.68 167.32 315.77 169.36 310.91 167.96 311.77 170.44 306.14 169.15 306.59 171.62 300.32" style="fill:#407BFF"></polygon><polygon points="171.62 300.32 174.63 306.86 173.13 306.32 175.71 310.32 173.66 309.95 176.46 315.14 174.63 314.68 177.21 321.5 174.41 320.32 173.88 321.5 171.62 320.41 167.86 321.5 168.61 320.05 166.13 320.96 168.93 314.68 167.32 315.77 169.36 310.91 167.96 311.77 170.44 306.14 169.15 306.59 171.62 300.32" style="opacity:0.30000000000000004"></polygon><polygon points="186.22 313.27 189.56 320.54 187.89 319.93 190.76 324.38 188.49 323.97 191.59 329.73 189.56 329.23 192.43 336.8 189.32 335.49 188.72 336.8 186.22 335.59 182.03 336.8 182.87 335.19 180.12 336.2 183.23 329.23 181.44 330.44 183.71 325.03 182.15 325.99 184.9 319.73 183.47 320.24 186.22 313.27" style="fill:#407BFF"></polygon><polygon points="189.56 329.23 190.1 339.96 191.33 342.06 188.73 341.29 185.69 342.06 187.51 338.96 187.9 329.23 189.56 329.23" style="fill:#263238"></polygon><polygon points="188.68 310.09 191.77 316.82 190.22 316.26 192.88 320.38 190.78 320 193.66 325.33 191.77 324.87 194.43 331.88 191.55 330.67 191 331.88 188.68 330.76 184.8 331.88 185.58 330.38 183.03 331.32 185.91 324.87 184.25 325.99 186.35 320.98 184.91 321.87 187.46 316.07 186.13 316.54 188.68 310.09" style="opacity:0.30000000000000004"></polygon><polygon points="258.05 342.52 255.49 352.95 256.77 369.38 258.05 373.41 250.12 373.41 251.85 359.32 245.34 342.52 247.1 342.52 252.3 352.61 254.48 344.4 258.05 342.52" style="fill:#263238"></polygon><path d="M232.72,336.55c-1.07-3.48,1.26-7.28,5.21-8.5a9.73,9.73,0,0,1,1-.23,11.47,11.47,0,0,1,8.11-8.56c6-1.83,12.1.93,13.71,6.18,0,.1.05.21.08.31A9.93,9.93,0,1,1,259,345.33a13.2,13.2,0,0,1-3.92,1.57,12.44,12.44,0,0,1-9.35-1.47,3.28,3.28,0,0,1-1.79,1.44c-2.3.71-5-1.54-6.1-5a10.53,10.53,0,0,1-.26-1A6.42,6.42,0,0,1,232.72,336.55Z" style="fill:#407BFF"></path><path d="M232.72,336.55c-1.07-3.48,1.26-7.28,5.21-8.5a9.73,9.73,0,0,1,1-.23,11.47,11.47,0,0,1,8.11-8.56c6-1.83,12.1.93,13.71,6.18,0,.1.05.21.08.31A9.93,9.93,0,1,1,259,345.33a13.2,13.2,0,0,1-3.92,1.57,12.44,12.44,0,0,1-9.35-1.47,3.28,3.28,0,0,1-1.79,1.44c-2.3.71-5-1.54-6.1-5a10.53,10.53,0,0,1-.26-1A6.42,6.42,0,0,1,232.72,336.55Z" style="opacity:0.30000000000000004"></path></g><g id="freepik--character-2--inject-441"><path d="M373.94,186.5a5.74,5.74,0,0,0-7.37,3.43l0,.08c-.82,2.25-1.66,4.66-2.56,7s-1.79,4.64-2.72,6.92-1.93,4.51-3,6.62c-.63,1.26-1.31,2.54-2,3.64-.2-.37-.4-.75-.59-1.14l-1.64-3.35-.08-.16a2.91,2.91,0,0,0-5.53,1.15,29.53,29.53,0,0,0,.13,4.32,25.07,25.07,0,0,0,.85,4.44,14.6,14.6,0,0,0,1,2.49,8.09,8.09,0,0,0,2.63,3.08,6.52,6.52,0,0,0,3.47,1.13,6.83,6.83,0,0,0,3.51-.88,10.07,10.07,0,0,0,3.07-2.75l-.44.55a37.46,37.46,0,0,0,5.27-7.29c1.41-2.41,2.62-4.83,3.75-7.27s2.15-4.88,3.11-7.35,1.86-4.91,2.67-7.54A5.76,5.76,0,0,0,373.94,186.5Z" style="fill:#407BFF"></path><path d="M349,209.29c-.28-1.78,2.39-6.8,2.39-6.8l5.65,5.35s-2.57,6.74-5.63,4.59A7,7,0,0,1,349,209.29Z" style="fill:#ff8b7b"></path><path d="M355.85,200.51l2.65,1.85a2.05,2.05,0,0,1,.46,2.9l-2,2.58-5.65-5.35,2-1.8A2,2,0,0,1,355.85,200.51Z" style="fill:#ff8b7b"></path><path d="M375.34,187.27l-4.09.58L367,194.49l-1.19,24.71c.8-1.15,1.49-2.3,2.17-3.45,1.41-2.41,2.62-4.83,3.75-7.27s2.15-4.88,3.11-7.35,1.86-4.91,2.67-7.54A5.76,5.76,0,0,0,375.34,187.27Z" style="opacity:0.5"></path><polygon points="369.26 409.17 361.37 409.07 362.49 390.71 370.88 390.81 369.26 409.17" style="fill:#ff8b7b"></polygon><path d="M361.62,406.67l8.63.11a.64.64,0,0,1,.62.55l.88,7.06a1.27,1.27,0,0,1-1.27,1.39c-3.11-.09-7.59-.33-11.5-.38-4.58-.06-4.13.12-9.5.06-3.24,0-3.82-3.34-2.44-3.62,6.32-1.28,6.95-1.34,12.62-4.57A3.81,3.81,0,0,1,361.62,406.67Z" style="fill:#263238"></path><polygon points="362.49 390.71 361.87 400.8 370.01 401.02 370.63 390.77 362.49 390.71" style="opacity:0.2"></polygon><path d="M360.2,407.38a.19.19,0,0,0,0-.34c-.36-.19-3.54-1.84-4.5-1.32a.58.58,0,0,0-.31.49h0a1.07,1.07,0,0,0,.35.92c.87.78,3.14.5,4.41.26ZM356,406c.6-.2,2.32.48,3.58,1.09-1.75.27-3.05.18-3.54-.26a.69.69,0,0,1-.23-.6.23.23,0,0,1,.12-.2Z" style="fill:#407BFF"></path><path d="M360.2,407.38l.05,0a.18.18,0,0,0,.07-.17c0-.09-.22-2.22-1.23-3.06a1.4,1.4,0,0,0-1-.34h0c-.52,0-.66.31-.7.52-.14.89,1.75,2.62,2.71,3.06A.17.17,0,0,0,360.2,407.38Zm-2.3-3.18a.69.69,0,0,1,.19,0h0a1,1,0,0,1,.76.25,4.46,4.46,0,0,1,1,2.46c-1-.6-2.26-2-2.18-2.5C357.73,404.34,357.74,404.25,357.9,404.2Zm.17-.22h0Z" style="fill:#407BFF"></path><path d="M382.28,321.9c10-36.4,13.76-52.19,11.11-70.24l-25.14.3s-4.93,49.25-5.27,70.85c-.36,22.3-2.18,73.85-2.18,73.85l11.46.17S385.69,346.69,382.28,321.9Z" style="fill:#263238"></path><polygon points="359.13 394.11 359.92 399.03 372.53 399.26 373.2 394.61 359.13 394.11" style="fill:#263238"></polygon><path d="M390.76,266.55l-6.19,4.5s-5,29.65-2.1,50.13c5.8-21.19,9.48-35.35,11-47.09Z" style="opacity:0.6000000000000001"></path><polygon points="407.34 409.85 398.9 409.19 398.35 389.48 406.78 390.14 407.34 409.85" style="fill:#ff8b7b"></polygon><path d="M399,406.86l9.22.14a.6.6,0,0,1,.62.59l.41,7.55a1.47,1.47,0,0,1-1.46,1.49c-3.32-.11-4.35-.38-8.53-.45-4.89-.08-2.65.12-8.38,0-3.46,0-3.84-3.56-2.33-3.87,4.75-1,6.08-2.86,8.31-4.86A3.06,3.06,0,0,1,399,406.86Z" style="fill:#263238"></path><polygon points="398.35 389.48 398.62 401 407.09 401.13 406.78 390.14 398.35 389.48" style="opacity:0.2"></polygon><path d="M397,408.09a.21.21,0,0,0,.18-.11.2.2,0,0,0,0-.23c-.27-.32-2.68-3.15-3.86-3a.69.69,0,0,0-.52.38h0a1.13,1.13,0,0,0-.05,1c.51,1.1,2.87,1.66,4.23,1.89Zm-3.57-2.93c.67,0,2.08,1.34,3,2.42-1.83-.38-3.08-1-3.36-1.57a.71.71,0,0,1,0-.69.27.27,0,0,1,.2-.16Z" style="fill:#407BFF"></path><path d="M397,408.09H397a.21.21,0,0,0,.15-.14c0-.09.76-2.3.13-3.52a1.36,1.36,0,0,0-.88-.71h0a.73.73,0,0,0-.91.25c-.53.84.58,3.27,1.32,4.07A.35.35,0,0,0,397,408.09Zm-.88-4,.21,0h0a1,1,0,0,1,.64.53,4.72,4.72,0,0,1,0,2.84c-.7-1-1.37-2.79-1.05-3.3A.23.23,0,0,1,396.08,404.06Zm.27-.16Z" style="fill:#407BFF"></path><path d="M410,284.07c.95-13,2.25-22.61-.41-32.81l-26.24.7s.7,49.5,4.5,70.85C391.79,345,397,396.66,397,396.66l11.49.17s4.77-50.14-1.48-74.93Z" style="fill:#263238"></path><polygon points="395.49 394.11 395.98 399.03 408.86 399.26 409.83 394.61 395.49 394.11" style="fill:#263238"></polygon><path d="M410.06,251.66c3.05-31.69.05-51.55-1.78-61.62a9.54,9.54,0,0,0-8.77-7.83,84.31,84.31,0,0,0-24,1.25,10.84,10.84,0,0,0-8.57,11c.42,8.28,4.93,17,3.45,24.59-2.82,14.42-4.88,27.77-2.29,33.25C368.12,252.33,384.57,255,410.06,251.66Z" style="fill:#407BFF"></path><path d="M388.9,168.28c.62,5.3,1.59,11.45,5.28,14.46A11.45,11.45,0,0,1,384,190c-5.68.3-4.73-4.24-3.75-6.64,2.46-2.7,1.36-5.71.79-7.85Z" style="fill:#ff8b7b"></path><path d="M387.28,170.87c0-.34-.07-.67-.12-1l-6.13,5.6a13,13,0,0,1,.72,4.53C384.78,178,387.59,174.09,387.28,170.87Z" style="opacity:0.2"></path><path d="M391,160.57c-1,7-1.26,11.17-5.11,14.52-5.8,5-14.22,1.16-15.32-6-1-6.44.84-16.83,8-19.12A9.58,9.58,0,0,1,391,160.57Z" style="fill:#ff8b7b"></path><path d="M379.77,162c0,.58-.39,1-.77,1s-.64-.52-.59-1.09.39-1,.76-1S379.81,161.41,379.77,162Z" style="fill:#263238"></path><path d="M372.6,161.67c-.05.57-.39,1-.76,1s-.64-.52-.6-1.09.39-1,.77-1S372.65,161.1,372.6,161.67Z" style="fill:#263238"></path><path d="M374.67,162.4a21.1,21.1,0,0,1-3.42,4.51,3.31,3.31,0,0,0,2.64.88Z" style="fill:#ff5652"></path><path d="M381.14,158.74a.28.28,0,0,0,.15-.08.34.34,0,0,0,0-.48,3.31,3.31,0,0,0-2.88-1.06.34.34,0,0,0-.27.4.32.32,0,0,0,.39.26h0a2.67,2.67,0,0,1,2.27.87A.34.34,0,0,0,381.14,158.74Z" style="fill:#263238"></path><path d="M370.52,158.34a.35.35,0,0,0,.31-.08,2.68,2.68,0,0,1,2.33-.74.34.34,0,0,0,.41-.25.33.33,0,0,0-.24-.41,3.41,3.41,0,0,0-3,.9.35.35,0,0,0,0,.48A.42.42,0,0,0,370.52,158.34Z" style="fill:#263238"></path><path d="M373.49,169a28.22,28.22,0,0,1,5.58-.12,3.5,3.5,0,0,1-3.69,2.12A1.81,1.81,0,0,1,373.49,169Z" style="fill:#263238"></path><path d="M376.45,170a3.93,3.93,0,0,0-2.34.52,2.1,2.1,0,0,0,1.27.43,3.86,3.86,0,0,0,2.34-.52A2.1,2.1,0,0,0,376.45,170Z" style="fill:#ff5652"></path><path d="M373.68,168.92c.09.27.18.55.58.65a22.08,22.08,0,0,0,3.65-.17,1.26,1.26,0,0,0,1-.58A32.29,32.29,0,0,0,373.68,168.92Z" style="fill:#fff"></path><path d="M396.63,219.2l-10-6.53a2.74,2.74,0,0,0-.9.83,2.86,2.86,0,0,0,.74,4,92,92,0,0,0,13.84,7.94,41.38,41.38,0,0,0,8.1,2.83,18.08,18.08,0,0,0,2.52.38l.41,0c0-1.94,0-3.79,0-5.6Z" style="opacity:0.2"></path><path d="M409.7,199l-5.33-9.94-4.49,4.37s5.21,13,5.75,23.63l5.62,1C411,210.44,410.38,204.11,409.7,199Z" style="opacity:0.2"></path><polygon points="386.13 220.18 356.22 220.18 344.28 175.61 374.19 175.61 386.13 220.18" style="fill:#263238"></polygon><g style="opacity:0.2"><polygon points="367.97 175.61 358.36 175.61 353.61 210.46 356.22 220.18 361.9 220.18 367.97 175.61" style="fill:#fff"></polygon><polygon points="373.05 175.61 370.73 175.61 364.66 220.18 366.97 220.18 373.05 175.61" style="fill:#fff"></polygon></g><path d="M359.66,175.19h-16l4,14.91.29,1.08L351.67,205l.29,1.08L356,221h30.89l-4-14.91-.29-1.08-3.71-13.82-.29-1.08-4-14.91Zm22.91,33.9h-3l-.81-3h3Zm-34.62-22h3l.81,3h-3Zm23.72-7.45h3l.9,3.37h-3Zm.55,3.37h-3.37l-.9-3.37h3.36Zm1,3.72h-3.36l-.9-3.36h3.36Zm.91,3.37h-3.37l-.8-3h3.36Zm3.09,11.54h-3.37l-.9-3.37h3.37Zm.9,3.36h-3.37l-.8-3h3.37Zm2.09,7.82h-3.36l-.9-3.37h3.36Zm-22.9-3.37h3.37l.9,3.37h-3.36Zm-.9-3.37h3.37l.8,3h-3.36Zm-3.09-11.53h3.37l.9,3.36h-3.37Zm-.9-3.37h3.36l.81,3h-3.37Zm-2.09-7.81h3.36l.9,3.36h-3.36Zm19.17,3.36h-3.37l-.9-3.36h3.37Zm3,11.18h-3.36l-.9-3.36h3.36Zm1,3.73h-3.36l-.91-3.37h3.37ZM358,198.27h3.36l.9,3.37h-3.36Zm-1-3.72h3.36l.9,3.36h-3.36Zm11.72,3.36h-3l-.9-3.36h3Zm1,3.73h-3l-.9-3.37h3Zm-8-3.37h3l.9,3.37h-3Zm-1-3.72h3l.9,3.36h-3Zm-.9-3.37h3l.8,3h-3ZM365.77,202l.8,3h-3l-.81-3Zm4.89,3h-3l-.8-3h3Zm-5.91-10.82-.8-3h3l.81,3Zm1.91-4.08h-3l-.81-3h3Zm-4.08,0h-3l-.8-3h3Zm-3.37,0h-3.36l-.81-3h3.37Zm-3.08,1.08h3.37l.81,3h-3.37ZM362.4,202l.81,3h-3.37l-.81-3Zm-2.27,4.08h3.36l.81,3h-3.37Zm3.73,0h3l.81,3h-3Zm4.08,0h3l.8,3h-3Zm3.37,0h3.36l.81,3h-3.37Zm3.07-1.08H371l-.81-3h3.37Zm-6.26-10.82-.81-3h3.37l.81,3Zm2.27-4.08H367l-.8-3h3.36Zm-4.63-3.37h-3l-.91-3.36h3Zm-4.08,0h-3l-.9-3.36h3Zm-3.37,0h-3.37l-.9-3.36h3.37Zm-3.63.36.8,3h-3.36l-.81-3Zm3,11.18.91,3.37h-3.37l-.9-3.37Zm-2.82,3.37h-3l-.9-3.37h3Zm3.82.36.81,3h-3.37l-.8-3Zm2.36,7.45h3.37l.9,3.37h-3.37Zm3.73,0h3l.9,3.37h-3Zm4.08,0h3l.9,3.37h-3Zm3.37,0h3.37l.9,3.37h-3.37Zm3.63-.36-.81-3h3.37l.81,3Zm-3-11.18-.9-3.36h3.37l.9,3.36Zm2.83-3.36h3l.91,3.36h-3Zm-3.82-.37-.81-3h3.37l.8,3ZM368.49,183h-3.37l-.9-3.37h3.37Zm-3.73,0h-3l-.9-3.37h3Zm-4.08,0h-3l-.9-3.37h3Zm-3.37,0h-3.37l-.9-3.37h3.37Zm-3.73,0h-3.36l-.9-3.37h3.36Zm-3.72,0h-3l-.9-3.37h3Zm.09.36.91,3.36h-3l-.9-3.36Zm2.1,7.81.8,3h-3l-.81-3Zm.9,3.37.9,3.36h-3l-.91-3.36Zm-1,7.45h3l.8,3h-3Zm4.1,4.08.81,3h-3l-.8-3Zm.9,3.37.91,3.37h-3l-.9-3.37Zm-2,3.73h3l.9,3.36h-3Zm3.36,0h3.37l.9,3.36H359.2Zm3.73,0h3.37l.9,3.36h-3.37Zm3.73,0h3l.9,3.36h-3Zm4.08,0h3l.9,3.36h-3Zm3.37,0h3.36l.91,3.36h-3.37Zm3.72,0h3.37l.9,3.36h-3.36Zm3.73,0h3l.9,3.36h-3Zm-.1-.36-.9-3.37h3l.9,3.37ZM378.47,205l-.8-3h3l.81,3Zm-.9-3.36-.9-3.37h3l.9,3.37Zm1-7.46h-3l-.8-3h3Zm-4.1-4.08-.81-3h3l.8,3Zm-.9-3.37-.91-3.36h3l.9,3.36Zm.2-10.46.8,3h-3l-.81-3Zm-3.37,0,.81,3h-3.37l-.8-3Zm-3.72,0,.8,3h-3.36l-.81-3Zm-2.92,3h-3l-.81-3h3Zm-4.9-3,.81,3h-3l-.8-3Zm-3.36,0,.8,3H353l-.81-3Zm-3.73,0,.81,3h-3.37l-.81-3Zm-2.92,3h-3l-.8-3h3Zm7.88,40.63-.8-3h3l.81,3Zm3.37,0-.81-3h3.37l.8,3Zm3.72,0-.8-3h3.36l.81,3Zm2.92-3h3l.8,3h-3Zm4.9,3-.81-3h3l.8,3Zm3.36,0-.8-3h3.36l.81,3Zm3.73,0-.81-3h3.37l.8,3Zm2.92-3h3l.8,3h-3Z" style="fill:#407BFF"></path><path d="M359.66,175.19h-16l4,14.91.29,1.08L351.67,205l.29,1.08L356,221h30.89l-4-14.91-.29-1.08-3.71-13.82-.29-1.08-4-14.91Zm22.91,33.9h-3l-.81-3h3Zm-34.62-22h3l.81,3h-3Zm23.72-7.45h3l.9,3.37h-3Zm.55,3.37h-3.37l-.9-3.37h3.36Zm1,3.72h-3.36l-.9-3.36h3.36Zm.91,3.37h-3.37l-.8-3h3.36Zm3.09,11.54h-3.37l-.9-3.37h3.37Zm.9,3.36h-3.37l-.8-3h3.37Zm2.09,7.82h-3.36l-.9-3.37h3.36Zm-22.9-3.37h3.37l.9,3.37h-3.36Zm-.9-3.37h3.37l.8,3h-3.36Zm-3.09-11.53h3.37l.9,3.36h-3.37Zm-.9-3.37h3.36l.81,3h-3.37Zm-2.09-7.81h3.36l.9,3.36h-3.36Zm19.17,3.36h-3.37l-.9-3.36h3.37Zm3,11.18h-3.36l-.9-3.36h3.36Zm1,3.73h-3.36l-.91-3.37h3.37ZM358,198.27h3.36l.9,3.37h-3.36Zm-1-3.72h3.36l.9,3.36h-3.36Zm11.72,3.36h-3l-.9-3.36h3Zm1,3.73h-3l-.9-3.37h3Zm-8-3.37h3l.9,3.37h-3Zm-1-3.72h3l.9,3.36h-3Zm-.9-3.37h3l.8,3h-3ZM365.77,202l.8,3h-3l-.81-3Zm4.89,3h-3l-.8-3h3Zm-5.91-10.82-.8-3h3l.81,3Zm1.91-4.08h-3l-.81-3h3Zm-4.08,0h-3l-.8-3h3Zm-3.37,0h-3.36l-.81-3h3.37Zm-3.08,1.08h3.37l.81,3h-3.37ZM362.4,202l.81,3h-3.37l-.81-3Zm-2.27,4.08h3.36l.81,3h-3.37Zm3.73,0h3l.81,3h-3Zm4.08,0h3l.8,3h-3Zm3.37,0h3.36l.81,3h-3.37Zm3.07-1.08H371l-.81-3h3.37Zm-6.26-10.82-.81-3h3.37l.81,3Zm2.27-4.08H367l-.8-3h3.36Zm-4.63-3.37h-3l-.91-3.36h3Zm-4.08,0h-3l-.9-3.36h3Zm-3.37,0h-3.37l-.9-3.36h3.37Zm-3.63.36.8,3h-3.36l-.81-3Zm3,11.18.91,3.37h-3.37l-.9-3.37Zm-2.82,3.37h-3l-.9-3.37h3Zm3.82.36.81,3h-3.37l-.8-3Zm2.36,7.45h3.37l.9,3.37h-3.37Zm3.73,0h3l.9,3.37h-3Zm4.08,0h3l.9,3.37h-3Zm3.37,0h3.37l.9,3.37h-3.37Zm3.63-.36-.81-3h3.37l.81,3Zm-3-11.18-.9-3.36h3.37l.9,3.36Zm2.83-3.36h3l.91,3.36h-3Zm-3.82-.37-.81-3h3.37l.8,3ZM368.49,183h-3.37l-.9-3.37h3.37Zm-3.73,0h-3l-.9-3.37h3Zm-4.08,0h-3l-.9-3.37h3Zm-3.37,0h-3.37l-.9-3.37h3.37Zm-3.73,0h-3.36l-.9-3.37h3.36Zm-3.72,0h-3l-.9-3.37h3Zm.09.36.91,3.36h-3l-.9-3.36Zm2.1,7.81.8,3h-3l-.81-3Zm.9,3.37.9,3.36h-3l-.91-3.36Zm-1,7.45h3l.8,3h-3Zm4.1,4.08.81,3h-3l-.8-3Zm.9,3.37.91,3.37h-3l-.9-3.37Zm-2,3.73h3l.9,3.36h-3Zm3.36,0h3.37l.9,3.36H359.2Zm3.73,0h3.37l.9,3.36h-3.37Zm3.73,0h3l.9,3.36h-3Zm4.08,0h3l.9,3.36h-3Zm3.37,0h3.36l.91,3.36h-3.37Zm3.72,0h3.37l.9,3.36h-3.36Zm3.73,0h3l.9,3.36h-3Zm-.1-.36-.9-3.37h3l.9,3.37ZM378.47,205l-.8-3h3l.81,3Zm-.9-3.36-.9-3.37h3l.9,3.37Zm1-7.46h-3l-.8-3h3Zm-4.1-4.08-.81-3h3l.8,3Zm-.9-3.37-.91-3.36h3l.9,3.36Zm.2-10.46.8,3h-3l-.81-3Zm-3.37,0,.81,3h-3.37l-.8-3Zm-3.72,0,.8,3h-3.36l-.81-3Zm-2.92,3h-3l-.81-3h3Zm-4.9-3,.81,3h-3l-.8-3Zm-3.36,0,.8,3H353l-.81-3Zm-3.73,0,.81,3h-3.37l-.81-3Zm-2.92,3h-3l-.8-3h3Zm7.88,40.63-.8-3h3l.81,3Zm3.37,0-.81-3h3.37l.8,3Zm3.72,0-.8-3h3.36l.81,3Zm2.92-3h3l.8,3h-3Zm4.9,3-.81-3h3l.8,3Zm3.36,0-.8-3h3.36l.81,3Zm3.73,0-.81-3h3.37l.8,3Zm2.92-3h3l.8,3h-3Z" style="fill:#fff;opacity:0.6000000000000001"></path><path d="M419.57,217a60.57,60.57,0,0,0-4-16.38q-1.45-3.83-3.23-7.45-.9-1.81-1.86-3.6c-.64-1.22-1.28-2.33-2.07-3.61a5.75,5.75,0,0,0-9.94,5.78l.11.19,1.69,3.11c.58,1.07,1.13,2.15,1.67,3.25,1.09,2.18,2.1,4.38,3.07,6.59s1.79,4.44,2.55,6.66c.33,1.11.69,2.23,1,3.32.1.33.18.66.25,1a40.8,40.8,0,0,1-6.39-1c-4.74-1-9.66-2.44-14.46-3.87l-.08,0a2.87,2.87,0,0,0-2.27,5.22,91.91,91.91,0,0,0,14.35,7,41.1,41.1,0,0,0,8.28,2.27,17.81,17.81,0,0,0,2.54.2,11.74,11.74,0,0,0,3.25-.4,7.65,7.65,0,0,0,4.31-3,7.33,7.33,0,0,0,1.15-2.83A8.61,8.61,0,0,0,419.57,217Z" style="fill:#407BFF"></path><path d="M388.16,210.66l-2-4.52-5.93,5.05s3.42,5.74,6,3.88a13,13,0,0,0,1.57-1.83A2.43,2.43,0,0,0,388.16,210.66Z" style="fill:#ff8b7b"></path><path d="M379.86,203.69l-1.78,2.12a2.25,2.25,0,0,0,0,2.91l2.12,2.47,5.93-5.05-3.07-2.7A2.25,2.25,0,0,0,379.86,203.69Z" style="fill:#ff8b7b"></path><path d="M390.51,160.92h-8.86a1.35,1.35,0,0,0-1.33-1.1h-2.47a1.35,1.35,0,0,0-1.33,1.1h-2.19a1.35,1.35,0,0,0-1.33-1.1h-2.47a1.35,1.35,0,0,0-1.35,1.35v1.73a1.36,1.36,0,0,0,1.35,1.35H373a1.36,1.36,0,0,0,1.36-1.35v-1.48h2.14v1.48a1.36,1.36,0,0,0,1.35,1.35h2.47a1.36,1.36,0,0,0,1.36-1.35v-1.48h8.83Zm-16.65,2a.86.86,0,0,1-.86.85h-2.47a.85.85,0,0,1-.85-.85v-1.73a.85.85,0,0,1,.85-.85H373a.86.86,0,0,1,.86.85Zm7.32,0a.86.86,0,0,1-.86.85h-2.47a.85.85,0,0,1-.85-.85v-1.73a.85.85,0,0,1,.85-.85h2.47a.86.86,0,0,1,.86.85Z" style="fill:#263238"></path><path d="M388.55,165.5s-3.11-2.51-1.71-8.41c0,0-5.73,1-4.85-3,0,0-5.56,1.87-4.81-1.19,0,0-6.07,4.06-5.41,0,0,0-5-3.63,1.19-4.69,0,0-.09-8.81,8.44-3.5,0,0,4.63-6.37,9.11,3.5,0,0,6.67-1.81,4.29,6.56,0,0,3.76,2.92-.62,7.18s-2.48,11.53-4.59,11.51S388.55,165.5,388.55,165.5Z" style="fill:#263238"></path><path d="M392.82,167.89a6.8,6.8,0,0,1-4.25,2.92c-2.31.49-3.3-1.61-2.51-3.71.71-1.89,2.77-4.41,5-3.95A3,3,0,0,1,392.82,167.89Z" style="fill:#ff8b7b"></path></g><g id="freepik--character-1--inject-441"><path d="M184.69,243.54l-7.3-6.83v1.62a4.68,4.68,0,0,1-2.3,4l-13.23,8.06v5.9l16-11.71a5.31,5.31,0,0,1,3.12-1Z" style="fill:#407BFF"></path><path d="M184.69,243.54l-7.3-6.83v1.62a4.68,4.68,0,0,1-2.3,4l-13.23,8.06v5.9l16-11.71a5.31,5.31,0,0,1,3.12-1Z" style="opacity:0.5"></path><polygon points="167.45 246.96 161.86 250.36 161.86 256.26 167.45 252.16 167.45 246.96" style="opacity:0.5"></polygon><path d="M150.47,222l-.07.67-.05.86c0,.58,0,1.17,0,1.76a24.13,24.13,0,0,0,.35,3.51,19.12,19.12,0,0,0,2.39,6.42,17.38,17.38,0,0,0,2.06,2.74c.38.43.8.83,1.23,1.24l.67.58.59.54a11.25,11.25,0,0,0,2.11,1.58,3.38,3.38,0,0,0,.92.36,2.74,2.74,0,0,0,.51.06h.46s0,0,0,.07a2.23,2.23,0,0,1,3.49,2.78l-.32.47c-.09.12-.18.25-.27.35a7.18,7.18,0,0,1-.6.63,7.43,7.43,0,0,1-1.41,1,7.6,7.6,0,0,1-3.33.84,11.92,11.92,0,0,1-5.84-1.48c-.39-.22-.8-.44-1.17-.68l-1-.74a25.52,25.52,0,0,1-1.95-1.66,24.73,24.73,0,0,1-3.37-3.91,25.5,25.5,0,0,1-4-9.44,28.4,28.4,0,0,1-.58-5c0-.84,0-1.69.06-2.54q0-.63.12-1.29l.09-.66c0-.25.06-.41.14-.79a4.49,4.49,0,0,1,8.87,1.32Z" style="fill:#407BFF"></path><path d="M150.47,222l-.07.67-.05.86c0,.58,0,1.17,0,1.76a24.13,24.13,0,0,0,.35,3.51,19.12,19.12,0,0,0,2.39,6.42,17.38,17.38,0,0,0,2.06,2.74c.38.43.8.83,1.23,1.24l.67.58.59.54a11.25,11.25,0,0,0,2.11,1.58,3.38,3.38,0,0,0,.92.36,2.74,2.74,0,0,0,.51.06h.46s0,0,0,.07a2.23,2.23,0,0,1,3.49,2.78l-.32.47c-.09.12-.18.25-.27.35a7.18,7.18,0,0,1-.6.63,7.43,7.43,0,0,1-1.41,1,7.6,7.6,0,0,1-3.33.84,11.92,11.92,0,0,1-5.84-1.48c-.39-.22-.8-.44-1.17-.68l-1-.74a25.52,25.52,0,0,1-1.95-1.66,24.73,24.73,0,0,1-3.37-3.91,25.5,25.5,0,0,1-4-9.44,28.4,28.4,0,0,1-.58-5c0-.84,0-1.69.06-2.54q0-.63.12-1.29l.09-.66c0-.25.06-.41.14-.79a4.49,4.49,0,0,1,8.87,1.32Z" style="fill:#fff;opacity:0.6000000000000001"></path><path d="M168.82,239.37l-.23,2.1a2.72,2.72,0,0,1-1.22,2l-3.16,2.06a4.48,4.48,0,0,1-4.09.48l-.81-.32c.15-3.48,2.83-7.36,2.83-7.36l.65-1.18a2.1,2.1,0,0,1,2.72-1l2.21,1.09A2.12,2.12,0,0,1,168.82,239.37Z" style="fill:#ce7a63"></path><path d="M143.13,213.43c5.66-.29,10,3.83,12.13,12.53-2.14,4-11.27,7.95-11.27,7.95S138.46,220.54,143.13,213.43Z" style="fill:#407BFF"></path><path d="M114.32,182.08s1.56-6.5-4.06-7.25-14.15,9.33-6.94,28.38,1.5,18.35,1.5,18.35,6.34,2,9.76-7.17-5.57-19.63-5-26.82,4-1.5,4-1.5Z" style="fill:#263238"></path><path d="M113.52,186.72s-2.18-.83-.88-3.95,4.3-1.13,4.3-1.13Z" style="fill:#407BFF"></path><path d="M135.34,184s4.16-.77,5.71,2.69C141.05,186.72,141.29,180.94,135.34,184Z" style="fill:#263238"></path><path d="M153.07,255s2.94,50.1,3.77,73.49c.88,24.55,7.71,62.92,11.6,78.34-1.19,1-6.13,1.42-8.92,1.1,0,0-17.31-36.4-18.15-63.89a107,107,0,0,0-3.77-25.61c-12.16-43.32-5.9-61.84-5.9-61.84Z" style="fill:#263238"></path><path d="M139.48,324.81c4.74-16.6,2.09-46.9,2.09-46.9l-1.37-9.75L136.56,271l-6.34,5.88C130.74,287.89,133,303.67,139.48,324.81Z" style="opacity:0.5"></path><path d="M145.77,260.05s-8.51,47.7-13.17,70.63c-4.89,24.08-7.23,63-7.06,78.88-1.4.73-6.3-.06-8.93-1,0,0-8.93-40.45-3.77-66.26a105.58,105.58,0,0,0,2.15-25c-1.84-43.88,7.76-54.7,7.76-54.7Z" style="fill:#263238"></path><path d="M152.47,223.91a91.23,91.23,0,0,1,1,12.81c.2,6.28.51,15.53.32,25.91l-32.89,1.93c0-8.95-1-18.88-8.15-37.9a8,8,0,0,1,5.68-10.51c1.25-.33,2.58-.64,4-.92A105.55,105.55,0,0,1,136.81,213c1.58-.11,3.22-.17,4.79-.2C147.28,212.67,151.91,218.4,152.47,223.91Z" style="fill:#407BFF"></path><path d="M122.84,200.34c1.56,4.33,3.2,11.43.43,14.92a10.45,10.45,0,0,0,12.26,6c4.6-1,2-8.21,2-8.21-5.3-.39-5.24-3.16-4.86-6.78Z" style="fill:#ce7a63"></path><path d="M126.85,202.75l5.82,3.5a13.6,13.6,0,0,0-.08,2.54c-2,0-5-1.65-5.49-3.61A6.56,6.56,0,0,1,126.85,202.75Z" style="opacity:0.2"></path><path d="M117.85,189.89c1.16,7.43,1.5,10.6,5.61,14.27,6.18,5.53,15,3,16-4.54,1-6.76-1.11-17.78-8.65-20.46A9.64,9.64,0,0,0,117.85,189.89Z" style="fill:#ce7a63"></path><path d="M129.66,193.18c.07.63.45,1.13.86,1.11s.67-.54.59-1.17-.45-1.12-.85-1.11S129.59,192.56,129.66,193.18Z" style="fill:#263238"></path><path d="M137.47,192.61c.07.62.45,1.12.85,1.1s.67-.54.6-1.17-.45-1.12-.86-1.1S137.4,192,137.47,192.61Z" style="fill:#263238"></path><path d="M137.89,191.48l1.43-.5S138.69,192.19,137.89,191.48Z" style="fill:#263238"></path><path d="M135.25,193.37a18.59,18.59,0,0,0,2.64,3.91,2.52,2.52,0,0,1-2.14.52Z" style="fill:#ba4d3c"></path><path d="M128.06,189.3a.33.33,0,0,0,.26-.11,2.68,2.68,0,0,1,2.42-.84.34.34,0,0,0,.42-.28.39.39,0,0,0-.3-.44,3.39,3.39,0,0,0-3.08,1,.38.38,0,0,0,0,.52A.42.42,0,0,0,128.06,189.3Z" style="fill:#263238"></path><path d="M139.94,188.49a.32.32,0,0,0,.24-.11.37.37,0,0,0-.06-.52,3.87,3.87,0,0,0-3.29-.94.34.34,0,0,0-.24.44.42.42,0,0,0,.47.27,3.06,3.06,0,0,1,2.6.77A.37.37,0,0,0,139.94,188.49Z" style="fill:#263238"></path><path d="M130.09,192.06l1.42-.5S130.89,192.77,130.09,192.06Z" style="fill:#263238"></path><path d="M138.84,249a2.25,2.25,0,0,0-2.77-1.56l-.09,0c-1.52.42-3.12.89-4.68,1.24s-3.12.72-4.63.94a18.83,18.83,0,0,1-4.19.26,4.74,4.74,0,0,1-1.19-.21,28.88,28.88,0,0,1-2-8.35,41.57,41.57,0,0,1-.11-4.74c0-.79.07-1.58.15-2.36l.14-1.16.07-.55.07-.45.06-.38a4.49,4.49,0,0,0-8.85-1.56l-.18.88-.13.77c-.08.51-.14,1-.19,1.52-.11,1-.18,2-.21,3a36.89,36.89,0,0,0,.33,6,33.65,33.65,0,0,0,1.35,6,29.42,29.42,0,0,0,2.49,5.67l.13.24a2.9,2.9,0,0,0,.4.54A7.94,7.94,0,0,0,119,257.2a12.35,12.35,0,0,0,3.59.26,23.47,23.47,0,0,0,5.75-1.23,43.44,43.44,0,0,0,5-2.09,48.46,48.46,0,0,0,4.61-2.65A2.25,2.25,0,0,0,138.84,249Z" style="fill:#407BFF"></path><path d="M138.84,249a2.25,2.25,0,0,0-2.77-1.56l-.09,0c-1.52.42-3.12.89-4.68,1.24s-3.12.72-4.63.94a18.83,18.83,0,0,1-4.19.26,4.74,4.74,0,0,1-1.19-.21,28.88,28.88,0,0,1-2-8.35,41.57,41.57,0,0,1-.11-4.74c0-.79.07-1.58.15-2.36l.14-1.16.07-.55.07-.45.06-.38a4.49,4.49,0,0,0-8.85-1.56l-.18.88-.13.77c-.08.51-.14,1-.19,1.52-.11,1-.18,2-.21,3a36.89,36.89,0,0,0,.33,6,33.65,33.65,0,0,0,1.35,6,29.42,29.42,0,0,0,2.49,5.67l.13.24a2.9,2.9,0,0,0,.4.54A7.94,7.94,0,0,0,119,257.2a12.35,12.35,0,0,0,3.59.26,23.47,23.47,0,0,0,5.75-1.23,43.44,43.44,0,0,0,5-2.09,48.46,48.46,0,0,0,4.61-2.65A2.25,2.25,0,0,0,138.84,249Z" style="fill:#fff;opacity:0.6000000000000001"></path><path d="M116.13,217.19c-6.08,3.14-7.12,5.7-6.4,16.71,3.46,2.34,13.31,1,13.31,1S123.09,220.94,116.13,217.19Z" style="fill:#407BFF"></path><path d="M143.57,244.39l-2-.47a2.68,2.68,0,0,0-2.25.58l-3,2.51c-1.2,1-2.52,3.8-1.82,4.9,1.83,2.94,7.86-.41,7.86-.41l1.33-.27a2.3,2.3,0,0,0,1.89-2.41l-.27-2.6A2.12,2.12,0,0,0,143.57,244.39Z" style="fill:#ce7a63"></path><path d="M126.69,408.47c1.19.72,3.34,1.84,4.45,1.34a1.13,1.13,0,0,0,.65-.82h0a.7.7,0,0,0-.15-.63c-.78-.9-4.46-.34-4.88-.27a.19.19,0,0,0-.16.17.2.2,0,0,0,.07.2Zm4.66.16a.28.28,0,0,1,.06.25.72.72,0,0,1-.42.55c-.63.28-2-.1-3.59-1,1.44-.19,3.37-.27,3.9.16Z" style="fill:#407BFF"></path><path d="M126.81,408.5c1.09-.11,3.52-1.23,3.67-2.22,0-.23,0-.55-.52-.79h0a1.41,1.41,0,0,0-1.14,0c-1.27.51-2.17,2.66-2.21,2.75a.22.22,0,0,0,0,.21l0,0A.18.18,0,0,0,126.81,408.5Zm3.28-2.28c-.08.59-1.8,1.54-3,1.81a4.67,4.67,0,0,1,1.83-2.18,1,1,0,0,1,.84,0h0a.61.61,0,0,1,.18.11C130.11,406.09,130.1,406.18,130.09,406.22Zm-.21-.54Z" style="fill:#407BFF"></path><path d="M125.13,407.47l-9.25-.11a.61.61,0,0,0-.64.57l-.62,7.56a1.47,1.47,0,0,0,1.43,1.53c3.33,0,4.37-.26,8.57-.21,4.9.05,2.64.19,8.39.26,3.48,0,3.94-3.47,2.45-3.83-4.74-1.11-6-3-8.2-5.09A3.07,3.07,0,0,0,125.13,407.47Z" style="fill:#263238"></path><path d="M171.52,407.72c1.24.75,3.49,1.93,4.66,1.41a1.19,1.19,0,0,0,.67-.87h0a.71.71,0,0,0-.15-.66c-.82-.94-4.67-.35-5.11-.28a.23.23,0,0,0-.17.18.24.24,0,0,0,.08.21Zm4.88.17a.27.27,0,0,1,0,.26.75.75,0,0,1-.44.58c-.65.29-2-.11-3.75-1.07,1.51-.19,3.53-.27,4.08.17Z" style="fill:#407BFF"></path><path d="M171.64,407.75c1.14-.11,3.69-1.29,3.85-2.32,0-.24,0-.58-.55-.83h0a1.45,1.45,0,0,0-1.19,0c-1.33.53-2.28,2.78-2.32,2.88a.23.23,0,0,0,0,.21.1.1,0,0,0,0,0A.18.18,0,0,0,171.64,407.75Zm3.44-2.39c-.09.62-1.89,1.62-3.1,1.9A4.88,4.88,0,0,1,173.9,405a1,1,0,0,1,.87,0h0a1.06,1.06,0,0,1,.19.11C175.1,405.23,175.09,405.32,175.08,405.36Zm-.22-.56h0Z" style="fill:#407BFF"></path><path d="M169.88,406.67l-9.68-.11a.64.64,0,0,0-.67.6l-.64,7.91a1.53,1.53,0,0,0,1.5,1.6c3.48,0,4.57-.27,9-.22,5.13.05,2.77.2,8.78.27,3.64,0,4.13-3.63,2.56-4-4.95-1.17-6.3-3.17-8.58-5.33A3.22,3.22,0,0,0,169.88,406.67Z" style="fill:#263238"></path><path d="M126.22,400.87c.1,1.42.31,3.9.64,5.78.12.68-.14,1.33-.58,1.46-3.67,1.11-9.12,0-10.85-.34a1.12,1.12,0,0,1-.68-1l-.83-5.4c-.11-.74.23-1.43.72-1.44l10.76-.22C125.81,399.73,126.17,400.22,126.22,400.87Z" style="fill:#407BFF"></path><path d="M126.22,400.87c.1,1.42.31,3.9.64,5.78.12.68-.14,1.33-.58,1.46-3.67,1.11-9.12,0-10.85-.34a1.12,1.12,0,0,1-.68-1l-.83-5.4c-.11-.74.23-1.43.72-1.44l10.76-.22C125.81,399.73,126.17,400.22,126.22,400.87Z" style="opacity:0.30000000000000004"></path><path d="M168.1,400.17c.43,1.36,1.21,3.72,2,5.48a1.25,1.25,0,0,1-.23,1.55c-3.31,1.94-8.86,2.18-10.63,2.21a1.12,1.12,0,0,1-.89-.78l-2.06-5.06c-.29-.69-.11-1.44.36-1.56l10.4-2.74C167.44,399.17,167.9,399.56,168.1,400.17Z" style="fill:#407BFF"></path><path d="M168.1,400.17c.43,1.36,1.21,3.72,2,5.48a1.25,1.25,0,0,1-.23,1.55c-3.31,1.94-8.86,2.18-10.63,2.21a1.12,1.12,0,0,1-.89-.78l-2.06-5.06c-.29-.69-.11-1.44.36-1.56l10.4-2.74C167.44,399.17,167.9,399.56,168.1,400.17Z" style="opacity:0.30000000000000004"></path><path d="M120.47,196.82s3,.23,2.84-10.75c0,0,6.65-6.31,13.21-2.15,0,0,3.09-3.67-1.28-4.21,0,0-11.32-8.71-19.94,1.95s6.42,20.7,6.42,20.7Z" style="fill:#263238"></path><path d="M116.23,197.63a6,6,0,0,0,3.81,2.59c2,.37,2.73-1.64,1.93-3.58-.73-1.74-2.64-4-4.54-3.53S115.11,195.94,116.23,197.63Z" style="fill:#ce7a63"></path><path d="M149.94,256.26h-6.6a4.67,4.67,0,0,1-4.64-5.11L140,237.58a4.65,4.65,0,0,1,4.64-4.21h5.27Zm-5.27-20.39a2.16,2.16,0,0,0-2.15,1.95l-1.33,13.57a2.16,2.16,0,0,0,2.15,2.37h4.1V235.87Z" style="fill:#407BFF"></path><g style="opacity:0.5"><path d="M149.94,256.26h-6.6a4.67,4.67,0,0,1-4.64-5.11L140,237.58a4.65,4.65,0,0,1,4.64-4.21h5.27Zm-5.27-20.39a2.16,2.16,0,0,0-2.15,1.95l-1.33,13.57a2.16,2.16,0,0,0,2.15,2.37h4.1V235.87Z"></path></g><path d="M144.54,235.89l.13,0h2.77v17.89H143.2a4.89,4.89,0,0,0,1.81,2.51h4.93V233.37h-5.16Z" style="opacity:0.5"></path><path d="M160.57,257.19H149.5a4.91,4.91,0,0,1-4.88-5.38l2-21.12a4.91,4.91,0,0,1,4.88-4.43h9a4.91,4.91,0,0,1,4.91,4.91v21.11A4.91,4.91,0,0,1,160.57,257.19Z" style="fill:#407BFF"></path><path d="M160.57,257.19H149.5a4.91,4.91,0,0,1-4.88-5.38l2-21.12a4.91,4.91,0,0,1,4.88-4.43h9a4.91,4.91,0,0,1,4.91,4.91v21.11A4.91,4.91,0,0,1,160.57,257.19Z" style="opacity:0.5"></path><path d="M134.64,201a4.62,4.62,0,0,0,.87-.14.14.14,0,0,0,.1-.18.16.16,0,0,0-.19-.11,4.42,4.42,0,0,1-3.76-.78.17.17,0,0,0-.22,0,.16.16,0,0,0,0,.22A4.65,4.65,0,0,0,134.64,201Z" style="fill:#263238"></path><path d="M180,238.23s24.21-9.84,23.46,20.5c0,0-.48-2-1.05-2s-1.14,2-1.14,2-.42-4.62-1.65-4.63c-.74,0-1.2,1.67-1.44,3a.59.59,0,0,1-1.06.24c-.3-.43-.65-.79-.93-.8a1.08,1.08,0,0,0-.68.38.58.58,0,0,1-1-.48c.54-5.11.64-16.77-10.34-14.23Z" style="fill:#407BFF"></path><path d="M180,238.23s24.21-9.84,23.46,20.5c0,0-.48-2-1.05-2s-1.14,2-1.14,2-.42-4.62-1.65-4.63c-.74,0-1.2,1.67-1.44,3a.59.59,0,0,1-1.06.24c-.3-.43-.65-.79-.93-.8a1.08,1.08,0,0,0-.68.38.58.58,0,0,1-1-.48c.54-5.11.64-16.77-10.34-14.23Z" style="fill:#fff;opacity:0.6000000000000001"></path></g></svg>
