<svg xmlns="http://www.w3.org/2000/svg" viewBox="0 0 750 500"><g id="freepik--background-complete--inject-385"><g><g><g><path d="M673.73,360.14h-180.75c-3.23,0-5.86-2.63-5.86-5.86V91c0-3.23,2.63-5.86,5.86-5.86h180.75c3.23,0,5.86,2.63,5.86,5.86V354.27c0,3.23-2.63,5.86-5.86,5.86ZM492.99,85.39c-3.09,0-5.61,2.52-5.61,5.61V354.27c0,3.09,2.52,5.61,5.61,5.61h180.75c3.09,0,5.61-2.52,5.61-5.61V91c0-3.09-2.52-5.61-5.61-5.61h-180.75Z" style="fill:#e0e0e0;"></path><path d="M465.31,360.14h-180.75c-3.23,0-5.86-2.63-5.86-5.86V91c0-3.23,2.63-5.86,5.86-5.86h180.75c3.23,0,5.86,2.63,5.86,5.86V354.27c0,3.23-2.63,5.86-5.86,5.86ZM284.56,85.39c-3.09,0-5.61,2.52-5.61,5.61V354.27c0,3.09,2.52,5.61,5.61,5.61h180.75c3.09,0,5.61-2.52,5.61-5.61V91c0-3.09-2.52-5.61-5.61-5.61h-180.75Z" style="fill:#e0e0e0;"></path></g><path d="M257.01,360.14H76.27c-3.23,0-5.86-2.63-5.86-5.86V91c0-3.23,2.63-5.86,5.86-5.86h180.75c3.23,0,5.86,2.63,5.86,5.86V354.27c0,3.23-2.63,5.86-5.86,5.86ZM76.27,85.39c-3.09,0-5.61,2.52-5.61,5.61V354.27c0,3.09,2.52,5.61,5.61,5.61h180.75c3.09,0,5.61-2.52,5.61-5.61V91c0-3.09-2.52-5.61-5.61-5.61H76.27Z" style="fill:#e0e0e0;"></path><rect y="391.45" width="750" height=".12" style="fill:#e0e0e0;"></rect></g><g><rect x="651.43" y="409.88" width="55.73" height=".42" style="fill:#e0e0e0;"></rect><rect x="492.84" y="414.44" width="14.63" height=".42" style="fill:#e0e0e0;"></rect><rect x="38.45" y="397.08" width="72.67" height=".42" style="fill:#e0e0e0;"></rect><rect x="126.1" y="397.08" width="10.66" height=".42" style="fill:#e0e0e0;"></rect><rect x="171.39" y="404.18" width="157.61" height=".42" style="fill:#e0e0e0;"></rect></g></g><g id="freepik--freepik--background-complete--inject-481--inject-385"><g><polygon points="700.61 257.81 700.61 211.22 671.77 211.22 671.77 221.84 652.54 221.84 652.54 105.47 615.57 105.47 615.57 151.27 604.48 151.27 604.48 128.4 575.64 128.4 575.64 239.95 534.96 239.95 534.96 200.54 509.46 200.54 509.46 115.09 477.98 115.09 477.98 172.05 448.4 172.05 448.4 294.77 425.48 294.77 425.48 235.01 401.81 235.01 401.81 196.56 376.67 196.56 376.67 167.04 348.62 181.83 348.62 260.82 319.04 260.82 319.04 244.53 279.52 244.53 279.52 391.23 739.49 391.45 739.49 257.81 700.61 257.81" style="fill:#f0f0f0;"></polygon><rect x="485.18" y="125.17" width="9.21" height="10.55" style="fill:#fafafa;"></rect><rect x="485.18" y="142.87" width="9.21" height="10.55" style="fill:#fafafa;"></rect><rect x="485.18" y="160.57" width="9.21" height="10.55" style="fill:#fafafa;"></rect><rect x="485.18" y="178.27" width="9.21" height="10.55" style="fill:#fafafa;"></rect><rect x="485.18" y="195.97" width="9.21" height="10.55" style="fill:#fafafa;"></rect><rect x="485.18" y="213.67" width="9.21" height="10.55" style="fill:#fafafa;"></rect><rect x="485.18" y="231.37" width="9.21" height="10.55" style="fill:#fafafa;"></rect><rect x="485.18" y="249.07" width="9.21" height="10.55" style="fill:#fafafa;"></rect><rect x="623.53" y="111.04" width="9.21" height="10.55" style="fill:#fafafa;"></rect><rect x="623.53" y="128.74" width="9.21" height="10.55" style="fill:#fafafa;"></rect><rect x="623.53" y="146.44" width="9.21" height="10.55" style="fill:#fafafa;"></rect><rect x="623.53" y="164.14" width="9.21" height="10.55" style="fill:#fafafa;"></rect><rect x="623.53" y="181.85" width="9.21" height="10.55" style="fill:#fafafa;"></rect><rect x="623.53" y="199.54" width="9.21" height="10.55" style="fill:#fafafa;"></rect><rect x="623.53" y="217.25" width="9.21" height="10.55" style="fill:#fafafa;"></rect><rect x="623.53" y="234.94" width="9.21" height="10.55" style="fill:#fafafa;"></rect></g><g><path d="M453.71,391.31V221.57h-36.64v169.72l36.64,.02Z" style="fill:#e0e0e0;"></path><rect x="419.85" y="226.96" width="4.44" height="9.16" style="fill:#fafafa;"></rect><rect x="428.73" y="226.96" width="4.44" height="9.16" style="fill:#fafafa;"></rect><rect x="437.61" y="226.96" width="4.44" height="9.16" style="fill:#fafafa;"></rect><rect x="446.5" y="226.96" width="4.44" height="9.16" style="fill:#fafafa;"></rect><rect x="419.85" y="242.33" width="4.44" height="9.16" style="fill:#fafafa;"></rect><rect x="428.73" y="242.33" width="4.44" height="9.16" style="fill:#fafafa;"></rect><rect x="437.61" y="242.33" width="4.44" height="9.16" style="fill:#fafafa;"></rect><rect x="446.5" y="242.33" width="4.44" height="9.16" style="fill:#fafafa;"></rect><rect x="419.85" y="257.69" width="4.44" height="9.16" style="fill:#fafafa;"></rect><rect x="428.73" y="257.69" width="4.44" height="9.16" style="fill:#fafafa;"></rect><rect x="437.61" y="257.69" width="4.44" height="9.16" style="fill:#fafafa;"></rect><rect x="446.5" y="257.69" width="4.44" height="9.16" style="fill:#fafafa;"></rect><rect x="419.85" y="273.05" width="4.44" height="9.16" style="fill:#fafafa;"></rect><rect x="428.73" y="273.05" width="4.44" height="9.16" style="fill:#fafafa;"></rect><rect x="437.61" y="273.05" width="4.44" height="9.16" style="fill:#fafafa;"></rect><rect x="446.5" y="273.05" width="4.44" height="9.16" style="fill:#fafafa;"></rect><rect x="419.85" y="288.4" width="4.44" height="9.16" style="fill:#fafafa;"></rect><rect x="428.73" y="288.4" width="4.44" height="9.16" style="fill:#fafafa;"></rect><rect x="437.61" y="288.4" width="4.44" height="9.16" style="fill:#fafafa;"></rect><rect x="446.5" y="288.4" width="4.44" height="9.16" style="fill:#fafafa;"></rect><rect x="419.85" y="303.76" width="4.44" height="9.16" style="fill:#fafafa;"></rect><rect x="428.73" y="303.76" width="4.44" height="9.16" style="fill:#fafafa;"></rect><rect x="437.61" y="303.76" width="4.44" height="9.16" style="fill:#fafafa;"></rect><rect x="446.5" y="303.76" width="4.44" height="9.16" style="fill:#fafafa;"></rect><rect x="419.85" y="319.12" width="4.44" height="9.16" style="fill:#fafafa;"></rect><rect x="428.73" y="319.12" width="4.44" height="9.16" style="fill:#fafafa;"></rect><rect x="437.61" y="319.12" width="4.44" height="9.16" style="fill:#fafafa;"></rect><rect x="446.5" y="319.12" width="4.44" height="9.16" style="fill:#fafafa;"></rect><rect x="419.85" y="334.49" width="4.44" height="9.16" style="fill:#fafafa;"></rect><rect x="428.73" y="334.49" width="4.44" height="9.16" style="fill:#fafafa;"></rect><rect x="437.61" y="334.49" width="4.44" height="9.16" style="fill:#fafafa;"></rect><rect x="446.5" y="334.49" width="4.44" height="9.16" style="fill:#fafafa;"></rect></g><g><path d="M581.04,391.37V201.98h-75.97v189.44s75.39,.02,75.97-.05Z" style="fill:#e6e6e6;"></path><rect x="510.77" y="208.25" width="9.21" height="10.55" style="fill:#e0e0e0;"></rect><rect x="529.2" y="208.25" width="9.21" height="10.55" style="fill:#e0e0e0;"></rect><rect x="547.62" y="208.25" width="9.21" height="10.55" style="fill:#e0e0e0;"></rect><rect x="566.05" y="208.25" width="9.21" height="10.55" style="fill:#e0e0e0;"></rect><rect x="510.77" y="225.96" width="9.21" height="10.55" style="fill:#e0e0e0;"></rect><rect x="529.2" y="225.96" width="9.21" height="10.55" style="fill:#e0e0e0;"></rect><rect x="547.62" y="225.96" width="9.21" height="10.55" style="fill:#e0e0e0;"></rect><rect x="566.05" y="225.96" width="9.21" height="10.55" style="fill:#e0e0e0;"></rect><rect x="510.77" y="243.65" width="9.21" height="10.55" style="fill:#e0e0e0;"></rect><rect x="529.2" y="243.65" width="9.21" height="10.55" style="fill:#e0e0e0;"></rect><rect x="547.62" y="243.65" width="9.21" height="10.55" style="fill:#e0e0e0;"></rect><rect x="566.05" y="243.65" width="9.21" height="10.55" style="fill:#e0e0e0;"></rect><rect x="510.77" y="261.35" width="9.21" height="10.55" style="fill:#e0e0e0;"></rect><rect x="529.2" y="261.35" width="9.21" height="10.55" style="fill:#e0e0e0;"></rect><rect x="547.62" y="261.35" width="9.21" height="10.55" style="fill:#e0e0e0;"></rect><rect x="566.05" y="261.35" width="9.21" height="10.55" style="fill:#e0e0e0;"></rect><rect x="510.77" y="279.05" width="9.21" height="10.55" style="fill:#e0e0e0;"></rect><rect x="529.2" y="279.05" width="9.21" height="10.55" style="fill:#e0e0e0;"></rect><rect x="547.62" y="279.05" width="9.21" height="10.55" style="fill:#e0e0e0;"></rect><rect x="566.05" y="279.05" width="9.21" height="10.55" style="fill:#e0e0e0;"></rect><rect x="510.77" y="296.75" width="9.21" height="10.55" style="fill:#e0e0e0;"></rect><rect x="529.2" y="296.75" width="9.21" height="10.55" style="fill:#e0e0e0;"></rect><rect x="547.62" y="296.75" width="9.21" height="10.55" style="fill:#e0e0e0;"></rect><rect x="566.05" y="296.75" width="9.21" height="10.55" style="fill:#e0e0e0;"></rect><rect x="510.77" y="314.46" width="9.21" height="10.55" style="fill:#e0e0e0;"></rect><rect x="529.2" y="314.46" width="9.21" height="10.55" style="fill:#e0e0e0;"></rect><rect x="547.62" y="314.46" width="9.21" height="10.55" style="fill:#e0e0e0;"></rect><rect x="566.05" y="314.46" width="9.21" height="10.55" style="fill:#e0e0e0;"></rect><rect x="510.77" y="332.15" width="9.21" height="10.55" style="fill:#e0e0e0;"></rect><rect x="529.2" y="332.15" width="9.21" height="10.55" style="fill:#e0e0e0;"></rect><rect x="547.62" y="332.15" width="9.21" height="10.55" style="fill:#e0e0e0;"></rect><rect x="566.05" y="332.15" width="9.21" height="10.55" style="fill:#e0e0e0;"></rect></g><g><path d="M403.74,391.29V188.74h-31.43v202.71c9.95-.25,31.43-.16,31.43-.16Z" style="fill:#e6e6e6;"></path><rect x="376.97" y="192.49" width="9.21" height="10.55" style="fill:#fafafa;"></rect><rect x="376.97" y="210.19" width="9.21" height="10.55" style="fill:#fafafa;"></rect><rect x="376.97" y="227.9" width="9.21" height="10.55" style="fill:#fafafa;"></rect><rect x="376.97" y="245.59" width="9.21" height="10.55" style="fill:#fafafa;"></rect><rect x="376.97" y="263.29" width="9.21" height="10.55" style="fill:#fafafa;"></rect><rect x="376.97" y="280.99" width="9.21" height="10.55" style="fill:#fafafa;"></rect><rect x="376.97" y="298.69" width="9.21" height="10.55" style="fill:#fafafa;"></rect><rect x="376.97" y="316.4" width="9.21" height="10.55" style="fill:#fafafa;"></rect><rect x="389.29" y="192.49" width="9.21" height="10.55" style="fill:#fafafa;"></rect><rect x="389.29" y="210.19" width="9.21" height="10.55" style="fill:#fafafa;"></rect><rect x="389.29" y="227.9" width="9.21" height="10.55" style="fill:#fafafa;"></rect><rect x="389.29" y="245.59" width="9.21" height="10.55" style="fill:#fafafa;"></rect><rect x="389.29" y="263.29" width="9.21" height="10.55" style="fill:#fafafa;"></rect><rect x="389.29" y="280.99" width="9.21" height="10.55" style="fill:#fafafa;"></rect><rect x="389.29" y="298.69" width="9.21" height="10.55" style="fill:#fafafa;"></rect><rect x="389.29" y="316.4" width="9.21" height="10.55" style="fill:#fafafa;"></rect></g><g><rect x="649.3" y="192.35" width="55.47" height="199.1" style="fill:#e6e6e6;"></rect><rect x="657.51" y="200.58" width="16.26" height="10.55" style="fill:#fafafa;"></rect><rect x="657.51" y="218.29" width="16.26" height="10.55" style="fill:#fafafa;"></rect><rect x="657.51" y="235.98" width="16.26" height="10.55" style="fill:#fafafa;"></rect><rect x="657.51" y="253.69" width="16.26" height="10.55" style="fill:#fafafa;"></rect><rect x="657.51" y="271.39" width="16.26" height="10.55" style="fill:#fafafa;"></rect><rect x="657.51" y="289.08" width="16.26" height="10.55" style="fill:#fafafa;"></rect><rect x="657.51" y="306.79" width="16.26" height="10.55" style="fill:#fafafa;"></rect><rect x="657.51" y="324.49" width="16.26" height="10.55" style="fill:#fafafa;"></rect><rect x="679.26" y="200.58" width="16.26" height="10.55" style="fill:#fafafa;"></rect><rect x="679.26" y="218.29" width="16.26" height="10.55" style="fill:#fafafa;"></rect><rect x="679.26" y="235.98" width="16.26" height="10.55" style="fill:#fafafa;"></rect><rect x="679.26" y="253.69" width="16.26" height="10.55" style="fill:#fafafa;"></rect><rect x="679.26" y="271.39" width="16.26" height="10.55" style="fill:#fafafa;"></rect><rect x="679.26" y="289.08" width="16.26" height="10.55" style="fill:#fafafa;"></rect><rect x="679.26" y="306.79" width="16.26" height="10.55" style="fill:#fafafa;"></rect><rect x="679.26" y="324.49" width="16.26" height="10.55" style="fill:#fafafa;"></rect></g><g><path d="M613.01,391.39V243.65h-24.19v147.72h24.19Z" style="fill:#e0e0e0;"></path><rect x="590.66" y="248.33" width="2.93" height="7.87" style="fill:#fafafa;"></rect><rect x="596.52" y="248.33" width="2.93" height="7.87" style="fill:#fafafa;"></rect><rect x="602.38" y="248.33" width="2.93" height="7.87" style="fill:#fafafa;"></rect><rect x="608.25" y="248.33" width="2.93" height="7.87" style="fill:#fafafa;"></rect><rect x="590.66" y="261.52" width="2.93" height="7.87" style="fill:#fafafa;"></rect><rect x="596.52" y="261.52" width="2.93" height="7.87" style="fill:#fafafa;"></rect><rect x="602.38" y="261.52" width="2.93" height="7.87" style="fill:#fafafa;"></rect><rect x="608.25" y="261.52" width="2.93" height="7.87" style="fill:#fafafa;"></rect><rect x="590.66" y="274.72" width="2.93" height="7.87" style="fill:#fafafa;"></rect><rect x="596.52" y="274.72" width="2.93" height="7.87" style="fill:#fafafa;"></rect><rect x="602.38" y="274.72" width="2.93" height="7.87" style="fill:#fafafa;"></rect><rect x="608.25" y="274.72" width="2.93" height="7.87" style="fill:#fafafa;"></rect><rect x="590.66" y="287.91" width="2.93" height="7.87" style="fill:#fafafa;"></rect><rect x="596.52" y="287.91" width="2.93" height="7.87" style="fill:#fafafa;"></rect><rect x="602.38" y="287.91" width="2.93" height="7.87" style="fill:#fafafa;"></rect><rect x="608.25" y="287.91" width="2.93" height="7.87" style="fill:#fafafa;"></rect><rect x="590.66" y="301.12" width="2.93" height="7.87" style="fill:#fafafa;"></rect><rect x="596.52" y="301.12" width="2.93" height="7.87" style="fill:#fafafa;"></rect><rect x="602.38" y="301.12" width="2.93" height="7.87" style="fill:#fafafa;"></rect><rect x="608.25" y="301.12" width="2.93" height="7.87" style="fill:#fafafa;"></rect><rect x="590.66" y="314.32" width="2.93" height="7.87" style="fill:#fafafa;"></rect><rect x="596.52" y="314.32" width="2.93" height="7.87" style="fill:#fafafa;"></rect><rect x="602.38" y="314.32" width="2.93" height="7.87" style="fill:#fafafa;"></rect><rect x="608.25" y="314.32" width="2.93" height="7.87" style="fill:#fafafa;"></rect><rect x="590.66" y="327.51" width="2.93" height="7.87" style="fill:#fafafa;"></rect><rect x="596.52" y="327.51" width="2.93" height="7.87" style="fill:#fafafa;"></rect><rect x="602.38" y="327.51" width="2.93" height="7.87" style="fill:#fafafa;"></rect><rect x="608.25" y="327.51" width="2.93" height="7.87" style="fill:#fafafa;"></rect><rect x="590.66" y="340.71" width="2.93" height="7.87" style="fill:#fafafa;"></rect><rect x="596.52" y="340.71" width="2.93" height="7.87" style="fill:#fafafa;"></rect><rect x="602.38" y="340.71" width="2.93" height="7.87" style="fill:#fafafa;"></rect><rect x="608.25" y="340.71" width="2.93" height="7.87" style="fill:#fafafa;"></rect></g><g><path d="M375.12,391.45v-125.89h-64.68v125.69l64.68,.21Z" style="fill:#fafafa;"></path><rect x="315.34" y="269.47" width="7.84" height="6.6" style="fill:#e0e0e0;"></rect><rect x="331.02" y="269.47" width="7.84" height="6.6" style="fill:#e0e0e0;"></rect><rect x="346.69" y="269.47" width="7.84" height="6.6" style="fill:#e0e0e0;"></rect><rect x="362.38" y="269.47" width="7.84" height="6.6" style="fill:#e0e0e0;"></rect><rect x="315.34" y="280.54" width="7.84" height="6.6" style="fill:#e0e0e0;"></rect><rect x="331.02" y="280.54" width="7.84" height="6.6" style="fill:#e0e0e0;"></rect><rect x="346.69" y="280.54" width="7.84" height="6.6" style="fill:#e0e0e0;"></rect><rect x="362.38" y="280.54" width="7.84" height="6.6" style="fill:#e0e0e0;"></rect><rect x="315.34" y="291.61" width="7.84" height="6.6" style="fill:#e0e0e0;"></rect><rect x="331.02" y="291.61" width="7.84" height="6.6" style="fill:#e0e0e0;"></rect><rect x="346.69" y="291.61" width="7.84" height="6.6" style="fill:#e0e0e0;"></rect><rect x="362.38" y="291.61" width="7.84" height="6.6" style="fill:#e0e0e0;"></rect><rect x="315.34" y="302.68" width="7.84" height="6.6" style="fill:#e0e0e0;"></rect><rect x="331.02" y="302.68" width="7.84" height="6.6" style="fill:#e0e0e0;"></rect><rect x="346.69" y="302.68" width="7.84" height="6.6" style="fill:#e0e0e0;"></rect><rect x="362.38" y="302.68" width="7.84" height="6.6" style="fill:#e0e0e0;"></rect><rect x="315.34" y="313.73" width="7.84" height="6.6" style="fill:#e0e0e0;"></rect><rect x="331.02" y="313.73" width="7.84" height="6.6" style="fill:#e0e0e0;"></rect><rect x="346.69" y="313.73" width="7.84" height="6.6" style="fill:#e0e0e0;"></rect><rect x="362.38" y="313.73" width="7.84" height="6.6" style="fill:#e0e0e0;"></rect><rect x="315.34" y="324.8" width="7.84" height="6.6" style="fill:#e0e0e0;"></rect><rect x="331.02" y="324.8" width="7.84" height="6.6" style="fill:#e0e0e0;"></rect><rect x="346.69" y="324.8" width="7.84" height="6.6" style="fill:#e0e0e0;"></rect><rect x="362.38" y="324.8" width="7.84" height="6.6" style="fill:#e0e0e0;"></rect><rect x="315.34" y="335.87" width="7.84" height="6.6" style="fill:#e0e0e0;"></rect><rect x="331.02" y="335.87" width="7.84" height="6.6" style="fill:#e0e0e0;"></rect><rect x="346.69" y="335.87" width="7.84" height="6.6" style="fill:#e0e0e0;"></rect><rect x="362.38" y="335.87" width="7.84" height="6.6" style="fill:#e0e0e0;"></rect></g></g><g><path d="M350.06,373.02c-1.92-1.81-6.01,5.19-6.01,5.19,0,0,4.4-15.26-.01-15.31-4.41-.05-4.63,13.02-4.63,13.02,0,0-1.42-25.99-7.15-23.93-5.73,2.06,2.64,25.25,2.64,25.25,0,0-7.42-16.49-10.26-13.25-2.84,3.24,6.53,17.03,6.53,17.03,0,0-6.85-4.42-6.4-1.27,.44,3.15,15.29,11.4,15.29,11.4,4.75-5.63,11.94-16.33,10.02-18.14Z" style="fill:#e6e6e6;"></path><g><path d="M340.07,391.56c-.12,0-.22-.08-.24-.2-.02-.11-2.34-11.2-3.67-18.68-.02-.14,.07-.27,.2-.29,.13-.03,.27,.07,.29,.2,1.32,7.47,3.64,18.55,3.67,18.66,.03,.14-.06,.27-.19,.3-.02,0-.03,0-.05,0Z" style="fill:#e0e0e0;"></path><path d="M338.54,384.22c-.07,0-.15-.03-.19-.09l-4.54-5.63c-.09-.11-.07-.27,.04-.35,.11-.09,.26-.07,.35,.04l4.54,5.63c.09,.11,.07,.27-.04,.35-.05,.04-.1,.06-.16,.06Z" style="fill:#e0e0e0;"></path></g></g><g><path d="M719.22,376.09c-1.4-2.24-7.13,3.51-7.13,3.51,0,0,8.12-13.65,3.86-14.82-4.25-1.17-7.77,11.43-7.77,11.43,0,0,5.2-25.5-.87-24.96-6.07,.54-3.83,25.09-3.83,25.09,0,0-3.01-17.83-6.58-15.41-3.57,2.42,2.01,18.13,2.01,18.13,0,0-5.5-6.01-5.87-2.85-.37,3.16,11.91,14.9,11.91,14.9,6.02-4.24,15.68-12.78,14.28-15.02Z" style="fill:#e0e0e0;"></path><g><path d="M704.93,391.51h-.01c-.14,0-.24-.12-.24-.26,0-.11,.56-11.43,1.17-19,.01-.14,.13-.25,.27-.23,.14,.01,.24,.13,.23,.27-.61,7.56-1.17,18.87-1.17,18.98,0,.13-.12,.24-.25,.24Z" style="fill:#e0e0e0;"></path><path d="M705.3,384.02c-.1,0-.19-.05-.23-.15l-2.96-6.59c-.06-.13,0-.27,.13-.33,.13-.06,.27,0,.33,.13l2.96,6.59c.06,.13,0,.27-.12,.33-.03,.02-.07,.02-.1,.02Z" style="fill:#e0e0e0;"></path></g></g><path d="M483.22,79.63c-2.21-1.67-5.42-1.86-7.81-.46-3.17-6.4-11.99-9.22-18.28-5.85-1.64-6.9-8.44-12.2-15.52-12.11-7.09,.09-13.75,5.55-15.23,12.48-.23,1.1-.39,2.31-1.18,3.11-1.28,1.31-3.42,.87-5.24,.73-5.74-.45-11.52,3.58-13.08,9.12l79.04-.29c.69-2.68-.5-5.07-2.71-6.74Z" style="fill:#e0e0e0;"></path><path d="M165.95,90.5c-2.08-1.57-5.11-1.75-7.35-.43-2.98-6.02-11.29-8.68-17.21-5.51-1.55-6.49-7.94-11.48-14.61-11.4-6.67,.08-12.95,5.22-14.33,11.75-.22,1.04-.37,2.17-1.11,2.93-1.21,1.23-3.22,.82-4.93,.68-5.4-.42-10.84,3.37-12.31,8.59l74.41-.27c.65-2.52-.47-4.77-2.55-6.34Z" style="fill:#e0e0e0;"></path><path d="M637.75,74.6c-1.7-1.29-4.18-1.43-6.02-.35-2.44-4.94-9.25-7.11-14.1-4.51-1.27-5.32-6.51-9.41-11.97-9.34-5.47,.07-10.61,4.28-11.75,9.63-.18,.85-.3,1.78-.91,2.4-.99,1.01-2.64,.67-4.04,.56-4.43-.35-8.88,2.76-10.09,7.04l60.97-.22c.53-2.06-.39-3.91-2.09-5.2Z" style="fill:#f5f5f5;"></path><path d="M390.66,126.57c-1.23-.93-3.02-1.03-4.35-.25-1.76-3.56-6.67-5.13-10.18-3.26-.91-3.84-4.7-6.79-8.64-6.74s-7.65,3.09-8.48,6.95c-.13,.61-.22,1.29-.66,1.73-.71,.73-1.9,.48-2.92,.4-3.2-.25-6.41,1.99-7.28,5.08l44-.16c.39-1.49-.28-2.82-1.51-3.75Z" style="fill:#f5f5f5;"></path><path d="M163.64,130.67c-1.23-.93-3.02-1.03-4.35-.25-1.76-3.56-6.67-5.13-10.18-3.26-.91-3.84-4.7-6.79-8.64-6.74-3.95,.05-7.66,3.09-8.48,6.95-.13,.61-.22,1.29-.66,1.73-.71,.73-1.9,.48-2.92,.4-3.2-.25-6.41,1.99-7.28,5.08l44-.16c.39-1.49-.28-2.82-1.51-3.75Z" style="fill:#e0e0e0;"></path><path d="M300.2,189.19c-2.18-1.65-5.37-1.84-7.73-.45-3.13-6.33-11.87-9.13-18.1-5.79-1.63-6.83-8.35-12.07-15.37-11.99-7.02,.08-13.61,5.49-15.07,12.36-.23,1.09-.39,2.29-1.17,3.08-1.27,1.29-3.38,.86-5.19,.72-5.68-.44-11.4,3.55-12.95,9.03l78.25-.28c.69-2.65-.49-5.02-2.68-6.67Z" style="fill:#f0f0f0;"></path></g><g id="freepik--Shadow--inject-385"><path d="M702.57,470.04c0,3.39-147.48,6.13-329.4,6.13s-329.4-2.75-329.4-6.13,147.48-6.13,329.4-6.13,329.4,2.75,329.4,6.13Z" style="fill:#f5f5f5;"></path></g><g id="freepik--Sun--inject-385"><g id="freepik--freepik--Sun--inject-5--inject-385"><g><path d="M305.84,97.12c0,3.22-4.66,5.78-5.46,8.75-.8,2.97,1.91,7.62,.36,10.3s-6.89,2.63-9.11,4.83c-2.21,2.2-2.11,7.54-4.83,9.11-2.72,1.57-7.23-1.17-10.3-.36-3.07,.82-5.54,5.46-8.75,5.46s-5.78-4.66-8.75-5.46c-2.97-.8-7.61,1.92-10.3,.36-2.69-1.56-2.62-6.89-4.83-9.11-2.21-2.21-7.53-2.1-9.11-4.83-1.58-2.73,1.17-7.26,.36-10.32-.82-3.06-5.46-5.53-5.46-8.75s4.66-5.77,5.46-8.74c.8-2.97-1.91-7.62-.36-10.3,1.55-2.68,6.89-2.63,9.11-4.84,2.21-2.21,2.11-7.53,4.83-9.11,2.72-1.58,7.23,1.18,10.3,.36,3.07-.83,5.54-5.45,8.75-5.45s5.78,4.66,8.75,5.45c2.97,.79,7.61-1.91,10.3-.36,2.69,1.55,2.62,6.89,4.83,9.11,2.21,2.21,7.53,2.11,9.11,4.84,1.58,2.73-1.17,7.23-.36,10.3,.82,3.07,5.46,5.55,5.46,8.76Z" style="fill:#407BFF;"></path><path d="M305.84,97.12c0,3.22-4.66,5.78-5.46,8.75-.8,2.97,1.91,7.62,.36,10.3s-6.89,2.63-9.11,4.83c-2.21,2.2-2.11,7.54-4.83,9.11-2.72,1.57-7.23-1.17-10.3-.36-3.07,.82-5.54,5.46-8.75,5.46s-5.78-4.66-8.75-5.46c-2.97-.8-7.61,1.92-10.3,.36-2.69-1.56-2.62-6.89-4.83-9.11-2.21-2.21-7.53-2.1-9.11-4.83-1.58-2.73,1.17-7.26,.36-10.32-.82-3.06-5.46-5.53-5.46-8.75s4.66-5.77,5.46-8.74c.8-2.97-1.91-7.62-.36-10.3,1.55-2.68,6.89-2.63,9.11-4.84,2.21-2.21,2.11-7.53,4.83-9.11,2.72-1.58,7.23,1.18,10.3,.36,3.07-.83,5.54-5.45,8.75-5.45s5.78,4.66,8.75,5.45c2.97,.79,7.61-1.91,10.3-.36,2.69,1.55,2.62,6.89,4.83,9.11,2.21,2.21,7.53,2.11,9.11,4.84,1.58,2.73-1.17,7.23-.36,10.3,.82,3.07,5.46,5.55,5.46,8.76Z" style="fill:#fff;"></path></g><circle cx="267.74" cy="97.11" r="27.22" transform="translate(102 328.73) rotate(-74.35)" style="fill:#407BFF;"></circle></g></g><g id="freepik--Sign--inject-385"><g><rect x="614.56" y="258.15" width="7.53" height="194.43" style="fill:#263238;"></rect><rect x="614.56" y="258.15" width="7.53" height="194.43" style="fill:#fff; opacity:.3;"></rect><rect x="585.33" y="164.47" width="69.87" height="96.63" rx="5.93" ry="5.93" style="fill:#407BFF;"></rect><path d="M647.96,258.65h-55.4c-1.77,0-3.21-1.44-3.21-3.21v-83.88c0-1.77,1.44-3.21,3.21-3.21h55.4c1.77,0,3.21,1.44,3.21,3.21v83.88c0,1.77-1.44,3.21-3.21,3.21Zm-55.4-89.31c-1.22,0-2.21,.99-2.21,2.21v83.88c0,1.22,.99,2.21,2.21,2.21h55.4c1.22,0,2.21-.99,2.21-2.21v-83.88c0-1.22-.99-2.21-2.21-2.21h-55.4Z" style="fill:#fff;"></path><path d="M632.33,187.83c2.52,1.14,4.46,2.76,5.83,4.86,1.36,2.1,2.04,4.58,2.04,7.45s-.68,5.31-2.04,7.43c-1.36,2.12-3.3,3.74-5.83,4.86-2.52,1.12-5.5,1.68-8.92,1.68h-7.79v10.66h-8.95v-38.66h16.73c3.42,0,6.4,.57,8.92,1.71Zm-3.29,17.26c1.4-1.16,2.1-2.81,2.1-4.94s-.7-3.84-2.1-5c-1.4-1.16-3.44-1.74-6.13-1.74h-7.29v13.42h7.29c2.69,0,4.73-.58,6.13-1.74Z" style="fill:#fff;"></path></g></g><g id="freepik--Car--inject-385"><g><polygon points="200.63 427.64 689.21 438.51 689.21 359.19 195.93 359.19 200.63 427.64" style="fill:#263238;"></polygon><g id="freepik--freepik--Car--inject-7--inject-385"><path d="M708,379.54v40.23c0,8.62-5.91,16.23-14.59,18.77l-3.45,1c-2.13,.63-4.35,.92-6.57,.87l-22.82-.51c2.71-9,2.95-18.51,.69-27.63-7.3-29.5-38.42-47.8-69.49-40.87-31.08,6.93-50.35,36.47-43.05,65.97l-232.18-5.24c.38-2.57,.56-5.17,.55-7.77-.14-30.31-26.13-54.77-58.06-54.64-31.92,.13-57.69,24.81-57.55,55.11,0,1.07,.09,2.12,.09,3.18-.3-.12-.62-.23-.93-.38l-7.94-3.36c-7.83-3.36-12.87-10.76-12.87-18.92v-81.94c0-7.71,4.5-14.78,11.68-18.37l59.68-29.79c.68-.35,1.21-.92,1.48-1.61,.6-1.55-.24-3.27-1.87-3.84l-7.3-2.48c-.61-.2-1.05-.71-1.14-1.32-.12-.89,.54-1.7,1.47-1.81,28.36-3.75,138.64-17.44,196.62-10.72,66.87,7.77,130.96,62.86,130.96,62.86,49.21-1.75,95.15,14.51,114.93,22.67,6.38,2.65,11.3,7.73,13.52,13.99l6.77,19.03c.89,2.41,1.35,4.94,1.38,7.49Z" style="fill:#263238;"></path><path d="M708,379.54v40.23c0,8.62-5.91,16.23-14.59,18.77l-3.45,1c-2.13,.63-4.35,.92-6.57,.87l-22.82-.51c2.71-9,2.95-18.51,.69-27.63-7.3-29.5-38.42-47.8-69.49-40.87-31.08,6.93-50.35,36.47-43.05,65.97l-232.18-5.24c.38-2.57,.56-5.17,.55-7.77-.14-30.31-26.13-54.77-58.06-54.64-31.92,.13-57.69,24.81-57.55,55.11,0,1.07,.09,2.12,.09,3.18-.3-.12-.62-.23-.93-.38l-7.94-3.36c-7.83-3.36-12.87-10.76-12.87-18.92v-81.94c0-7.71,4.5-14.78,11.68-18.37l59.68-29.79c.68-.35,1.21-.92,1.48-1.61,.6-1.55-.24-3.27-1.87-3.84l-7.3-2.48c-.61-.2-1.05-.71-1.14-1.32-.12-.89,.54-1.7,1.47-1.81,28.36-3.75,138.64-17.44,196.62-10.72,66.87,7.77,130.96,62.86,130.96,62.86,49.21-1.75,95.15,14.51,114.93,22.67,6.38,2.65,11.3,7.73,13.52,13.99l6.77,19.03c.89,2.41,1.35,4.94,1.38,7.49Z" style="fill:#fff; isolation:isolate; opacity:.4;"></path><path d="M316.47,432.13c.34-2.42,.5-4.85,.5-7.29,0-1.24-.05-2.47-.12-3.7l41.99-16.3c2.46-.95,5.11-1.36,7.76-1.2l146.04,9.1c2.39,.14,4.72,.75,6.85,1.79l27.75,13.55c.2,3.13,.67,6.24,1.41,9.3l-232.17-5.24Z" style="fill:#263238;"></path><path d="M179.8,405.36v-2.09l23.75,6.9c-1.38,4.78-2.09,9.71-2.08,14.67,0,1.07,.09,2.12,.09,3.18-.3-.12-.62-.23-.93-.38l-7.96-3.36c-7.83-3.36-12.87-10.76-12.87-18.92Z" style="fill:#263238;"></path><path d="M701.26,434.21c-2.27,1.99-4.98,3.47-7.93,4.33l-3.45,1c-2.13,.63-4.35,.92-6.57,.87l-22.82-.51c.83-2.74,1.42-5.53,1.78-8.36l38.99,2.67Z" style="fill:#263238;"></path><path d="M259.12,364.81c2.62,0,5.25,.15,7.85,.46,34.65,4.11,59.23,34.1,54.9,66.99l-5.48-.13c.38-2.57,.56-5.17,.55-7.77-.14-30.31-26.13-54.77-58.06-54.64-31.92,.13-57.69,24.81-57.55,55.11,0,1.07,.09,2.12,.09,3.18-.3-.12-.62-.23-.93-.38l-4.56-1.96v-.84c.04-33.14,28.34-60,63.25-60.03h-.06Z" style="fill:#263238;"></path><path d="M604.91,364.81c5.4,0,10.78,.65,16,1.95,33.79,8.38,54.02,41.18,45.19,73.26l-5.61-.12c2.71-9,2.95-18.51,.69-27.63-7.3-29.5-38.42-47.8-69.49-40.87-31.08,6.93-50.35,36.47-43.05,65.97l-5.6-.13c-.91-4.09-1.37-8.25-1.37-12.43,0-33.15,28.32-60.01,63.24-60h0Z" style="fill:#263238;"></path><path d="M549.88,318.65c.68,.54,1.16,1.32,1.36,2.21,.48,2.09-.7,4.2-2.63,4.71l-24.13,6.42c-2.14,.57-4.36,.73-6.55,.47l-178.95-21.05c-4.35-.52-8.41-2.66-11.49-6.05l-23.48-25.96c-.78-.86-1.28-1.97-1.41-3.17-.32-2.95,1.63-5.62,4.36-5.95,42.85-5.39,97.03-10.3,131.25-6.33,44.84,5.19,89.98,37.19,111.68,54.7Z" style="fill:#407BFF;"></path><path d="M549.07,318.65c.68,.54,1.16,1.32,1.36,2.21,.48,2.09-.7,4.2-2.63,4.71l-24.13,6.42c-2.14,.57-4.36,.73-6.55,.47l-174.95-11.38c-4.35-.52-11.09-8.12-15.85-14.29l-23.12-27.39c-.78-.86-1.28-1.97-1.41-3.17-.32-2.95,1.63-5.62,4.36-5.95,42.85-5.39,97.03-10.3,131.25-6.33,44.84,5.19,89.98,37.19,111.68,54.7Z" style="fill:#fff; isolation:isolate; opacity:.8;"></path><g style="opacity:.3;"><path d="M432.17,334.84c1.15-.39,1.74-1.59,1.33-2.68h0c-.51-1.35-1.83-2.27-3.33-2.32l-21.3-.85c-.29-.01-.58,.03-.85,.12-1.16,.39-1.76,1.6-1.34,2.7h0c.52,1.35,1.84,2.26,3.35,2.32l21.3,.84c.29,.01,.58-.03,.85-.12Z"></path></g><path d="M273.79,276.92c1.88,1.59,2.05,4.33,.38,6.12l-5.05,5.21c-.58,.58-1.32,1.01-2.13,1.23l-61.87,16.29c-1.08,.28-2.19,.42-3.3,.42h-12.29c.64-.4,1.29-.78,1.98-1.13l59.68-29.82h0c1.51-.71,2.12-2.44,1.38-3.87l19.38,4.61c.68,.18,1.31,.5,1.84,.95Z" style="fill:#407BFF;"></path><path d="M659.04,346.69l21.11-2.18,12.13,4.71c2.55,.99,4.45,3.07,5.13,5.6h0c.4,1.47,.17,3.02-.62,4.33l-.21,.35c-1.36,2.22-3.99,3.44-6.66,3.09l-12.17-1.59c-1.19-.16-2.31-.6-3.27-1.29l-14.04-10.11-1.39-2.92Z" style="fill:#fff; isolation:isolate;"></path><path d="M571.35,316.32l-3.36,.91c-2.61,.71-5.42,.13-7.5-1.53-19.56-15.71-53.58-39.81-90.28-51.05-.16-.05-.3-.16-.38-.3-.19-.31-.07-.71,.26-.88l4.56-2.22c52.95,17.43,96.7,55.08,96.7,55.08Z" style="fill:#407BFF;"></path><path d="M571.35,316.32l-3.36,.91c-2.61,.71-5.42,.13-7.5-1.53-19.56-15.71-53.58-39.81-90.28-51.05-.16-.05-.3-.16-.38-.3-.19-.31-.07-.71,.26-.88l4.56-2.22c52.95,17.43,96.7,55.08,96.7,55.08Z" style="fill:#fff; isolation:isolate; opacity:.8;"></path><path d="M370.73,337.53l177.9,12.08-3.35,20.83c-1.03,6.38-3.52,12.47-7.3,17.83l-14.87,21.1-151.84-19.49-71.79-52.35h71.24Z" style="fill:#fff; isolation:isolate; opacity:.2;"></path><ellipse cx="259.18" cy="424.84" rx="48.16" ry="45.72" style="fill:#263238;"></ellipse><ellipse cx="259.18" cy="424.84" rx="29.53" ry="28.03" style="fill:#fff; isolation:isolate; opacity:.4;"></ellipse><g style="opacity:.3;"><path d="M256.81,401.87v14.37c0,1.24,1.06,2.24,2.36,2.24h.02c1.3,0,2.36-1,2.36-2.24v-14.37c0-1.24-1.06-2.24-2.36-2.24h-.02c-1.3,0-2.36,1-2.36,2.24Z" style="fill:#fff;"></path></g><g style="opacity:.3;"><path d="M256.81,433.45v14.37c0,1.24,1.06,2.24,2.36,2.24h.02c1.3,0,2.36-1,2.36-2.24v-14.37c0-1.24-1.06-2.24-2.36-2.24h-.02c-1.3,0-2.36,1-2.36,2.24Z" style="fill:#fff;"></path></g><g style="opacity:.3;"><path d="M250.15,422.49c1.13,.61,2.57,.24,3.22-.84h0c.65-1.08,.26-2.45-.87-3.06l-13.1-7.22c-1.13-.62-2.58-.25-3.24,.82h0c-.64,1.07-.26,2.44,.87,3.06l13.1,7.22h.02Z" style="fill:#fff;"></path></g><g style="opacity:.3;"><path d="M278.96,438.22c1.13,.62,2.57,.25,3.22-.83h0c.65-1.08,.26-2.45-.87-3.06l-13.1-7.22h0c-1.13-.62-2.57-.26-3.22,.81h0c-.66,1.07-.28,2.45,.85,3.08l13.11,7.22h0Z" style="fill:#fff;"></path></g><g style="opacity:.3;"><path d="M239.41,438.27l13.1-7.22c1.13-.62,1.52-2,.87-3.08h0c-.66-1.07-2.11-1.43-3.24-.81l-13.1,7.22c-1.12,.62-1.51,1.99-.87,3.06h0c.66,1.08,2.11,1.44,3.24,.82Z" style="fill:#fff;"></path></g><g style="opacity:.3;"><path d="M265,421.66c.65,1.07,2.09,1.44,3.22,.82l13.1-7.22h0c1.13-.62,1.51-1.99,.86-3.06h0c-.65-1.08-2.09-1.44-3.22-.82l-13.11,7.22h0c-1.13,.62-1.51,1.99-.85,3.06h0Z" style="fill:#fff;"></path></g><path d="M263.14,424.83c0-2.07-1.77-3.75-3.96-3.75h-.02c-2.19,0-3.97,1.69-3.97,3.77s1.78,3.77,3.97,3.77,3.97-1.69,3.97-3.77h0Z" style="fill:#263238;"></path><ellipse cx="604.91" cy="424.84" rx="48.16" ry="45.72" style="fill:#263238;"></ellipse><ellipse cx="604.91" cy="424.84" rx="29.53" ry="28.03" style="fill:#fff; isolation:isolate; opacity:.4;"></ellipse><g style="opacity:.3;"><path d="M602.55,401.87v14.37c0,1.24,1.06,2.24,2.36,2.24h.02c1.3,0,2.36-1,2.36-2.24v-14.37c0-1.24-1.06-2.24-2.36-2.24h-.02c-1.3,0-2.36,1-2.36,2.24Z" style="fill:#fff;"></path></g><g style="opacity:.3;"><path d="M602.55,433.45v14.37c0,1.24,1.06,2.24,2.36,2.24h.02c1.3,0,2.36-1,2.36-2.24v-14.37c0-1.24-1.06-2.24-2.36-2.24h-.02c-1.3,0-2.36,1-2.36,2.24Z" style="fill:#fff;"></path></g><g style="opacity:.3;"><path d="M595.9,422.49c1.13,.6,2.56,.23,3.19-.84h0c.65-1.07,.27-2.44-.85-3.06l-13.11-7.22h0c-1.13-.62-2.57-.25-3.22,.82h0c-.65,1.08-.26,2.45,.87,3.06l13.1,7.22,.03,.02Z" style="fill:#fff;"></path></g><g style="opacity:.3;"><path d="M627.92,437.39h0c.65-1.08,.26-2.45-.87-3.06l-13.1-7.22c-1.13-.62-2.58-.26-3.24,.81h0c-.65,1.08-.27,2.45,.87,3.08l13.1,7.22c1.13,.62,2.58,.25,3.24-.82Z" style="fill:#fff;"></path></g><g style="opacity:.3;"><path d="M581.91,437.45c.65,1.07,2.09,1.44,3.22,.82l13.11-7.22c1.13-.63,1.51-2,.85-3.08h0c-.66-1.07-2.1-1.43-3.22-.81l-13.1,7.22h0c-1.13,.62-1.51,1.99-.86,3.06h0Z" style="fill:#fff;"></path></g><g style="opacity:.3;"><path d="M610.73,421.67c.66,1.07,2.1,1.42,3.23,.8l13.1-7.22h0c1.13-.62,1.51-1.99,.86-3.06h0c-.66-1.08-2.11-1.44-3.24-.82l-13.1,7.22h0c-1.13,.62-1.51,1.99-.86,3.06h0v.02Z" style="fill:#fff;"></path></g><path d="M604.91,421.07h0c-2.19,0-3.97,1.69-3.97,3.77s1.78,3.77,3.97,3.77,3.97-1.69,3.97-3.77-1.78-3.77-3.97-3.77Z" style="fill:#263238;"></path><path d="M184.86,338.59c-1.6-.47-2.5-2.09-2-3.62,.56-9.62,2.71-18.2,8.93-24.09,.42-1.3,1.73-2.14,3.15-2.04l36.71,3.29c.64,.07,1.24,.32,1.72,.73,1.25,1.07,1.34,2.9,.22,4.08l-10.51,10.76c-.36,.37-.83,.65-1.34,.79l-35.14,10.11c-.57,.15-1.17,.14-1.73-.02Z" style="isolation:isolate; opacity:.3;"></path><path d="M551.23,320.84c.48,2.09-.7,4.2-2.63,4.71l-24.13,6.42c-2.14,.57-3.93,.97-6.71,1.09l-7.6-.48,7.17-36.75c16.55,10.32,17.69,10.79,32.55,22.8,.68,.54,1.16,1.32,1.36,2.21Z" style="fill:#263238;"></path><path d="M394.01,262.76l15.16,62.76-19.83-1.35-9.06-60.82c4.64-.25,9.22-.45,13.73-.59Z" style="fill:#263238;"></path><path d="M331.08,312.43l-27.86-33.03c-.8-.87-1.31-2-1.44-3.21-.31-2.96,1.65-5.62,4.37-5.94,5.71-.74,11.78-1.44,17.85-2.14" style="fill:#263238;"></path><g><path d="M529.28,327.22c4.82,.05,8.78-3.61,8.83-8.19h0c.05-3.89-2.76-7.29-6.76-8.18l-11.64-2.59-2.96,18.51,12.29,.45c.08,0,.15,0,.23,0Z" style="fill:#263238;"></path><path d="M529.28,327.22c4.82,.05,8.78-3.61,8.83-8.19h0c.05-3.89-2.76-7.29-6.76-8.18l-11.64-2.59-2.96,18.51,12.29,.45c.08,0,.15,0,.23,0Z" style="fill:#fff; isolation:isolate; opacity:.4;"></path><polygon points="520.17 326.9 516.77 326.77 519.73 308.26 523.05 309.01 520.17 326.9" style="isolation:isolate; opacity:.3;"></polygon></g></g><path d="M404.9,406.28c-.11,0-.22-.08-.24-.2-.13-.57-12.85-57.23-14.47-64.95-.63-2.99-.86-8.7-.68-16.96,0-.14,.14-.25,.26-.24,.14,0,.25,.12,.24,.26-.18,8.22,.04,13.89,.67,16.84,1.63,7.72,14.34,64.38,14.47,64.95,.03,.13-.05,.27-.19,.3-.02,0-.04,0-.05,0Z" style="opacity:.6;"></path><path d="M519.47,414.78c-.05,0-.1-.01-.15-.05-.11-.08-.14-.24-.06-.35,.16-.23,16.56-23.26,22.18-32.89,5.74-9.83,9.6-58.8,9.64-59.29,0-.14,.1-.26,.27-.23,.14,.01,.24,.13,.23,.27-.16,2.02-3.91,49.58-9.71,59.5-5.63,9.65-22.04,32.7-22.21,32.93-.05,.07-.12,.1-.2,.1Z" style="opacity:.6;"></path><path d="M680.15,344.75s-.06,0-.09-.02c-12.27-4.76-53.08-14.11-62.28-15.51-11.94-1.82-52.69-11.36-53.1-11.46-.13-.03-.22-.17-.19-.3,.03-.13,.17-.22,.3-.19,.41,.1,41.15,9.64,53.07,11.45,9.47,1.44,49.8,10.65,62.38,15.54,.13,.05,.19,.2,.14,.32-.04,.1-.13,.16-.23,.16Z" style="opacity:.6;"></path><path d="M273.79,276.92c1.88,1.59,2.05,4.33,.38,6.12l-5.05,5.21c-.58,.58-1.32,1.01-2.13,1.23l-61.87,16.29c-1.08,.28-2.19,.42-3.3,.42h-12.29c.64-.4,1.29-.78,1.98-1.13l59.68-29.82h0c1.51-.71,2.12-2.44,1.38-3.87l19.38,4.61c.68,.18,1.31,.5,1.84,.95Z" style="fill:#fff; isolation:isolate; opacity:.8;"></path></g></g><g id="freepik--Parking_machine--inject-385"><g><rect x="43" y="169.19" width="107.44" height="301.38" style="fill:#263238;"></rect><rect x="43" y="169.19" width="107.44" height="301.38" style="fill:#fff; isolation:isolate; opacity:.2;"></rect><rect x="43" y="169.19" width="57.31" height="301.38" style="opacity:.3;"></rect><rect x="105.45" y="178.05" width="39.6" height="31.01" style="opacity:.3;"></rect><rect x="106.56" y="214.33" width="31.03" height="7.48" style="opacity:.3;"></rect><rect x="106.56" y="227.67" width="38.49" height="38.49"></rect><rect x="111.03" y="232.96" width="29.92" height="2.68" style="fill:#263238;"></rect><rect x="111.03" y="238.54" width="8.31" height="2.68" style="fill:#263238;"></rect><rect x="111.03" y="245.17" width="29.92" height="2.68" style="fill:#263238;"></rect><rect x="111.03" y="250.01" width="20.92" height="2.68" style="fill:#263238;"></rect><polygon points="106.56 266.16 110.63 276.49 148.29 276.49 145.05 266.16 106.56 266.16" style="opacity:.3;"></polygon><rect x="110.42" y="287.79" width="34.02" height="29.3" style="opacity:.3;"></rect><rect x="51.28" y="189.28" width="38.97" height="57.63" rx="1.13" ry="1.13" style="fill:#263238;"></rect><rect x="54.21" y="317.1" width="36.03" height="153.46" style="opacity:.3;"></rect><path d="M75.72,201.74c1.11,.5,1.97,1.22,2.57,2.15,.6,.93,.9,2.02,.9,3.29s-.3,2.35-.9,3.28c-.6,.94-1.46,1.65-2.57,2.15-1.11,.5-2.43,.74-3.94,.74h-3.44v4.71h-3.95v-17.08h7.39c1.51,0,2.83,.25,3.94,.76Zm-1.45,7.62c.62-.51,.93-1.24,.93-2.18s-.31-1.7-.93-2.21c-.62-.51-1.52-.77-2.71-.77h-3.22v5.93h3.22c1.19,0,2.09-.26,2.71-.77Z" style="fill:#fff;"></path><rect x="55.32" y="225.42" width="30.88" height="2.25" style="fill:#fff;"></rect><rect x="55.32" y="230.99" width="30.88" height="2.25" style="fill:#fff;"></rect><rect x="55.32" y="236.75" width="13.81" height="2.25" style="fill:#fff;"></rect><rect x="141.45" y="214.05" width="3.6" height="7.75" style="fill:#263238;"></rect><path d="M142.82,459.56h-35.13v-130.92h35.13v130.92Zm-34.63-.5h34.13v-129.92h-34.13v129.92Z" style="fill:#263238;"></path></g></g><g id="freepik--Character--inject-385"><g><g><g><path d="M240.19,431.74l9.31-7.33c5.94,6.76,10.73,13.5,14.35,17.52l-2.25,5.27-6.07-1.22s-6.44-6.9-15.35-14.24Z" style="fill:#b97964;"></path><g><g><path d="M249.11,441.45l3.62-2.31c3.71,1.88,4.45,.38,4.9-2.95,.97-.79,2.02,.23,2.32,.5l6.53,5.91c.55,.49,.6,1.33,.11,1.89-.09,.1-.19,.18-.3,.25-3.2,2.04-4.71,3-8.69,5.54l-12.18,7.76c-3.32,2.11-6.14-.79-4.97-1.97,5.28-5.28,8.48-9.86,9.25-12.86,.15-.54-.36-.54-.59-1.76Z" style="fill:#407BFF;"></path><path d="M251.73,444.91s-.07,0-.11-.02c-.92-.43-2.02-.44-2.94-.01-.12,.06-.27,0-.33-.12-.06-.12,0-.27,.12-.33,1.06-.49,2.31-.48,3.37,.02,.12,.06,.18,.21,.12,.33-.04,.09-.13,.14-.23,.14Z" style="fill:#263238;"></path><path d="M250.88,447.19s-.07,0-.11-.02c-.92-.43-2.02-.44-2.94-.01-.12,.06-.27,0-.33-.12-.06-.12,0-.27,.12-.33,1.06-.49,2.31-.48,3.37,.02,.12,.06,.18,.21,.12,.33-.04,.09-.13,.14-.23,.14Z" style="fill:#263238;"></path><path d="M249.5,449.52s-.07,0-.11-.02c-.92-.43-2.02-.44-2.94-.01-.12,.06-.27,0-.33-.12-.06-.12,0-.27,.12-.33,1.06-.49,2.31-.48,3.37,.02,.12,.06,.18,.21,.12,.33-.04,.09-.13,.14-.23,.14Z" style="fill:#263238;"></path></g><path d="M266.6,444.49c-.09,.1-.19,.18-.3,.25-3.2,2.04-4.71,3-8.69,5.54l-12.18,7.76c-1.8,1.14-3.44,.81-4.39,.09,.51-.32,24.82-15.55,25.07-15.86l.48,.45c.45,.5,.47,1.26,.01,1.77Z" style="fill:#fff; opacity:.7;"></path></g></g><g><path d="M185.26,431.47l14.43,8.9c-1.07,10.83-3.73,20.67-2.73,25.98l-4.66,3.34-6.34-6.61s.55-19.38-.7-31.61Z" style="fill:#b97964;"></path><g><g><path d="M185.39,458.3l4.29-.09c2.2,3.53,3.6,2.63,5.72,.02,1.24-.17,1.61,1.25,1.72,1.63l2.52,8.44c.22,.7-.18,1.45-.88,1.67-.13,.04-.26,.06-.39,.06-3.79,.08-5.59,.12-10.31,.22l-14.43,.31c-3.93,.08-4.83-3.86-3.22-4.27,7.25-1.77,12.37-4.02,14.58-6.19,.41-.38-.03-.65,.4-1.81Z" style="fill:#407BFF;"></path><path d="M185.96,462.66c-.08,0-.16-.04-.21-.11-.56-.85-1.5-1.42-2.51-1.54-.14-.02-.24-.14-.22-.28,.02-.14,.15-.23,.28-.22,1.16,.13,2.23,.79,2.87,1.76,.08,.12,.04,.27-.07,.35-.04,.03-.09,.04-.14,.04Z" style="fill:#263238;"></path><path d="M184.05,464.16c-.08,0-.16-.04-.21-.11-.56-.85-1.5-1.42-2.51-1.54-.14-.02-.24-.14-.22-.28,.02-.14,.15-.23,.28-.22,1.16,.13,2.23,.79,2.87,1.76,.08,.12,.04,.27-.07,.35-.04,.03-.09,.04-.14,.04Z" style="fill:#263238;"></path><path d="M181.67,465.44c-.08,0-.16-.04-.21-.11-.56-.85-1.5-1.43-2.51-1.54-.14-.02-.24-.14-.22-.28,.02-.14,.15-.23,.28-.22,1.16,.13,2.23,.79,2.87,1.76,.08,.12,.04,.27-.07,.35-.04,.03-.09,.04-.14,.04Z" style="fill:#263238;"></path></g><path d="M198.76,469.98c-.13,.04-.26,.06-.39,.06-3.79,.08-5.59,.12-10.31,.22l-14.43,.31c-2.13,.05-3.36-1.09-3.8-2.2,.6,0,29.29-.4,29.66-.53l.17,.63c.12,.66-.26,1.32-.91,1.52Z" style="fill:#fff; opacity:.7;"></path></g></g><g><path d="M191.47,304.63l10.21,21.78s-16.21,48.8-17.18,53.89c-.97,5.09-1.43,69.16-1.43,69.16l18.04,.03,7.07-62.51s21.9-53.09,23.51-57.4c3-8.08-.15-18.94-.15-18.94l-5.58-8.04-34.49,2.03Z" style="fill:#407BFF;"></path><path d="M191.47,304.63l10.21,21.78s-16.21,48.8-17.18,53.89c-.97,5.09-1.43,69.16-1.43,69.16l18.04,.03,7.07-62.51s21.9-53.09,23.51-57.4c3-8.08-.15-18.94-.15-18.94l-5.58-8.04-34.49,2.03Z" style="opacity:.4;"></path><path d="M181.56,315.55c0,1.98,7.04,69.58,8.19,69.82,1.16,.24,52.13,55.99,52.13,55.99l14.47-12.71-37.4-50.71-4.14-45.57-1.45-28.65-32.62,2.41,.82,9.42Z" style="fill:#407BFF;"></path><path d="M181.56,315.55c0,1.98,7.04,69.58,8.19,69.82,1.16,.24,52.13,55.99,52.13,55.99l14.47-12.71-37.4-50.71-4.14-45.57-1.45-28.65-32.62,2.41,.82,9.42Z" style="opacity:.4;"></path><polygon points="206.3 403 207.2 387.12 217.68 363.9 217.68 363.9 209.81 388.45 209.06 405.26 206.3 403" style="opacity:.4;"></polygon><polygon points="187.4 369.95 201.67 326.41 196.7 321.87 198.28 328.11 186.78 364.78 187.4 369.95" style="opacity:.4;"></polygon></g></g><g><g><g><path d="M138.06,245.32l22.09,20.27,10.3-19.16s11.23,11.09,10.85,11.25-13.22,28.28-22.48,23.23-24.92-30.41-24.92-30.41l4.17-5.19Z" style="fill:#b97964;"></path><path d="M160.15,265.59s1.91,3.06,1.68,5.95c0,0,.86-1.42,.6-3.72-.26-2.3-1.38-3.89-1.38-3.89l-.89,1.66Z" style="isolation:isolate; opacity:.2;"></path></g><path d="M180.48,229.19c6.03,3.09,8.45,14.08-4.51,40.58l-15.48-11.94c2.48-6.61,5-10.05,8.97-18.08,6.29-12.46,11.02-10.56,11.02-10.56Z" style="fill:#407BFF;"></path><path d="M180.29,228.78c4.25-.94,21.17-5.37,39.26-4.61l9.56,67.39s1.86,8.83,4.4,17.59c-17.23,9.98-41.14,11.59-53.97,6.14,.17,.27-.23-7.19-.78-18.13-.97-19.27-2.4-49.33-1.96-66.87,.02-.43,3.07-1.41,3.5-1.5Z" style="fill:#407BFF;"></path><polygon points="177.37 266.84 176.77 245.04 174.01 268.26 175.97 269.77 177.37 266.84" style="isolation:isolate; opacity:.2;"></polygon><polygon points="223.56 262.2 222.61 262.48 216.44 245.95 221.07 264.86 224.22 264.88 223.56 262.2" style="isolation:isolate; opacity:.2;"></polygon></g><path d="M147.27,252.52s-1.23-7.1-2.62-7.81-2.71-.58-2.71-.58c0,0-8.21-8.86-9.34-7.51-.61,.73,1.05,3.24,4.99,7.37,0,0-3.04,.19-2.42,2.12,0,0-2.29,.32-1.82,2.64,0,0-1.45,1.49-.63,2.97s5.37,6.24,8.4,7.65,6.73-4.19,6.73-4.19l-.6-2.66Z" style="fill:#b97964;"></path><path d="M143.17,253.68s-.05,0-.07-.01c-.97-.29-1.78-1.16-2.11-2.28-.25-.87-.25-2.23-.1-3.22-1.3,.47-3.26,.35-4.12-.55-.57-.6-.62-1.18-.13-1.82,.24-.31,.8-.46,1.46-.61,.13-.03,.24-.06,.33-.08,.55-.15,1.25-.38,1.95-.61,.71-.23,1.42-.46,1.98-.62,.13-.03,.27,.04,.31,.17,.04,.13-.04,.27-.17,.31-.55,.16-1.25,.38-1.96,.61-.71,.23-1.41,.46-1.97,.61-.09,.03-.21,.05-.35,.09-.36,.08-1.03,.23-1.17,.43-.33,.44-.31,.74,.1,1.17,.79,.83,2.9,.85,3.97,.25,.09-.05,.19-.04,.27,.02,.08,.06,.12,.16,.09,.26-.21,.93-.26,2.53,0,3.44,.28,.96,.96,1.7,1.77,1.94,.13,.04,.21,.18,.17,.31-.03,.11-.13,.18-.24,.18Z" style="opacity:.3;"></path><path d="M135.64,253.95c-.27,0-.55-.08-.82-.23-.36-.21-.64-.53-.89-.81-.09-.1-.08-.26,.02-.35,.1-.09,.26-.08,.35,.02,.23,.26,.48,.54,.77,.71,.29,.17,.61,.21,.85,.11,.42-.18,.56-.78,.47-1.28-.09-.53-.35-1.02-.72-1.4-.19-.12-.38-.27-.57-.43-.09-.09-.11-.23-.03-.33,.07-.1,.22-.13,.33-.07,.21,.12,.41,.27,.59,.44,.33,.2,.67,.33,1,.37,.58,.07,1.16-.14,1.47-.55,.32-.42,.29-1.08-.07-1.4-.1-.09-.11-.25-.02-.35,.09-.1,.25-.11,.35-.02,.55,.49,.61,1.44,.13,2.07-.41,.54-1.17,.84-1.93,.74-.11-.01-.22-.04-.33-.06,.15,.28,.25,.59,.31,.91,.11,.67-.08,1.52-.77,1.82-.15,.07-.32,.1-.49,.1Z" style="opacity:.3;"></path></g><g><path d="M219.13,224.15s7.52,.21,10.55,8.6c2.78,7.73,9.87,24.76,9.87,24.76l-16.93,4.96-6.74-20.17,3.26-18.15Z" style="fill:#407BFF;"></path><g><path d="M238.27,257.89s5.1,12.07,7.26,22.9c.98,4.92-2.95,8.08-6.97,9.05-12.68,3.06-41.24,3.07-41.24,3.07l-.75-8.71,32.9-7.12-5.91-14.88,14.72-4.31Z" style="fill:#b97964;"></path><path d="M197.25,294.77l-10.78,1.22c-.37,.04-.74-.09-1-.35l-16.41-16.23c-.68-.67-.37-1.82,.56-2.06l9.48-2.45c.42-.11,.86,.01,1.17,.31l17.71,17.46c.73,.72,.3,1.98-.72,2.09Z" style="fill:#263238;"></path><path d="M198.25,284.25s-.3-1.27-5.08-2.72c-3.62-1.11-7.22-4.5-7.81-4.38-.59,.12-1.23,1.96,.28,3.59,1.51,1.63,3.07,2.55,2.67,3.18-.96,1.5-12.76,.28-12.96,1.57-.2,1.29,2.05,4.97,8.36,7.44,6.32,2.46,14.97,0,14.97,0l-.45-8.66Z" style="fill:#b97964;"></path></g></g><g><g><g><g><path d="M204.77,224.69s-1.62-5.33,.09-15.29c0-.01-.53-.18-.54-.19,.23-1.39,.5-2.68,.77-3.81,0-.03,0-.04,0-.04l-12.26,9.64c.66,3.05,.23,9.13-.15,11.72,0,0-1.15,4.74,4.93,4.26,4.44-.36,7.16-6.29,7.16-6.29Z" style="fill:#b97964;"></path><path d="M193.09,219.36l7.39-2.57c-.42,2.44-2.19,5.47-7.45,6.3,0,0,.23-2.7,.05-3.73Z" style="opacity:.2;"></path></g><g><path d="M204.47,198.95c.06,8.46,.26,13.23-3.71,17.8-5.97,6.88-16.4,3.81-18.99-4.48-2.33-7.47-2.03-20.05,6.01-23.88,7.92-3.78,16.64,2.1,16.69,10.56Z" style="fill:#b97964;"></path><path d="M204.84,188.75c-1.47-4.56-13.11-3.82-16.2-1.23-.46,.39,6.41,2.64,5.98,2.52l3.43,.2c.49-.15,1.66,1.81,2.27,3.33,0,0,.51,12.94,4.42,16.43,2.84-1.63,2.67-6.77,3.39-9.88,1.07-4.64,2.28-11.4-3.3-11.37Z" style="fill:#263238;"></path><path d="M208.27,205.74c-.53,2.21-2.03,3.97-3.64,4.91-2.43,1.42-3.55-1.26-3.5-3.93,.05-2.4,.55-5.36,3.29-5.69,2.69-.33,4.46,2.18,3.85,4.71Z" style="fill:#b97964;"></path><path d="M192.57,202.2c.06,.86-.35,1.59-.92,1.62-.56,.03-1.07-.64-1.13-1.5-.06-.86,.35-1.59,.92-1.62,.56-.03,1.07,.64,1.13,1.5Z" style="fill:#263238;"></path><path d="M184.13,202.95c.06,.86-.35,1.59-.92,1.62-.56,.03-1.07-.64-1.13-1.5s.35-1.59,.92-1.62c.56-.03,1.07,.64,1.13,1.5Z" style="fill:#263238;"></path><path d="M186.85,202.28s-2.44,4.47-3.19,6.27c1.27,1,3.31,.36,3.31,.36l-.11-6.63Z" style="fill:#a24e3f;"></path><path d="M194.4,198c-.13,.06-.28,.06-.41-.03-1.5-1.01-2.88-.46-2.9-.46-.21,.09-.44-.01-.53-.22-.09-.21,.01-.44,.22-.53,.07-.03,1.81-.72,3.67,.54,.19,.13,.23,.38,.11,.56-.04,.06-.09,.1-.15,.13Z" style="fill:#263238;"></path><path d="M189.97,211.84c-.2,0-.36-.15-.37-.35-.01-.21,.15-.38,.35-.4,1.12-.07,2.08-.62,3.19-1.85,.14-.15,.38-.16,.53-.03,.15,.14,.17,.38,.03,.53-.89,.98-2.02,1.99-3.7,2.09h-.02Z" style="fill:#263238;"></path></g><path d="M202.51,206.58h-.01c-.14,0-.24-.12-.24-.26,.03-.78,.27-1.53,.69-2.19,.28-.44,.77-1.02,1.5-1.26,.72-.23,1.51-.02,1.93,.52,.08,.11,.07,.27-.04,.35-.11,.08-.27,.06-.35-.04-.29-.37-.87-.51-1.38-.35-.59,.19-.99,.67-1.23,1.05-.37,.58-.58,1.25-.61,1.94,0,.13-.12,.24-.25,.24Z" style="opacity:.2;"></path></g><path d="M180.15,199.56c-.08-.01-.15-.04-.21-.1-.17-.15-.18-.41-.04-.57,1.48-1.67,3.32-1.39,3.4-1.39,.22,.03,.37,.24,.34,.46-.03,.22-.24,.37-.45,.34-.08-.01-1.49-.21-2.68,1.13-.09,.11-.23,.15-.36,.13Z" style="fill:#263238;"></path></g><path d="M198.16,181.69c-1.95-.63-3.88-.83-5.86-.71-3.53,.21-7.22,.63-10.2,2.98-1.31,1.03-2.42,2.39-3.67,3.51-1.26,1.12-2.74,2.02-4.28,1.91,1.18,2.27,3.67,3.36,5.74,2.51-1.53,.64-3.16,.92-4.78,.83,3.41,1.53,7.12,2.54,10.66,1.58,2.37-.64,4.52-2.12,6.8-3.14,2.28-1.02,4.88-1.57,7.08-.33l5.2-2.08c.93-3.91-2.36-5.66-6.68-7.06Z" style="fill:#263238;"></path></g></g></g></svg>
